<svg width="200" viewBox="0 0 1274 764" fill="none" xmlns="http://www.w3.org/2000/svg">
<path d="M0 71C0 31.7878 31.7878 0 71 0H1203C1242.21 0 1274 31.7878 1274 71V693C1274 732.212 1242.21 764 1203 764H71C31.7878 764 0 732.212 0 693V71Z" fill="#444444"/>
<path fill-rule="evenodd" clip-rule="evenodd" d="M1203 20H71C42.8335 20 20 42.8335 20 71V693C20 721.167 42.8335 744 71 744H1203C1231.17 744 1254 721.167 1254 693V71C1254 42.8335 1231.17 20 1203 20ZM71 0C31.7878 0 0 31.7878 0 71V693C0 732.212 31.7878 764 71 764H1203C1242.21 764 1274 732.212 1274 693V71C1274 31.7878 1242.21 0 1203 0H71Z" fill="#EEEEEE"/>
<path fill-rule="evenodd" clip-rule="evenodd" d="M351.167 507.006V526.189C351.167 543.623 350.665 545.373 345.666 545.373C340.303 545.373 340.184 543.989 340.902 490.296L341.639 435.219L354.3 433.097C379.471 428.88 395.895 440.19 399.103 463.948C402.752 490.983 383.57 513.086 360.254 508.711L351.167 507.006ZM351.167 470.611C351.167 495.022 351.788 498.86 355.931 500.026C363.029 502.024 376.454 499.463 380.594 495.322C384.77 491.145 389.607 472.477 388.086 466.409C387.522 464.163 386.292 458.875 385.351 454.657C383.33 445.604 370.141 438.91 358.652 441.107L351.167 442.538V470.611Z" fill="white"/>
<path d="M528.243 480.162C514.768 517.415 510.424 526.44 502.422 533.801C495.89 539.81 490.095 542.65 484.369 542.65C473.393 542.65 475.115 537.409 487.395 533.438C493.828 531.357 498.489 527.239 502.153 520.4L507.508 510.404L492.209 472.069C477.365 434.877 477.094 433.734 483.095 433.734C488.489 433.734 490.585 437.398 499.474 462.353C505.081 478.094 510.652 491.58 511.853 492.323C513.055 493.066 518.531 480.187 524.022 463.704C532.101 439.453 535.002 433.734 539.225 433.734C542.096 433.734 544.445 434.103 544.445 434.553C544.445 435.004 537.154 455.527 528.243 480.162Z" fill="white"/>
<path fill-rule="evenodd" clip-rule="evenodd" d="M457.333 503.168C457.333 497.908 456.513 498.005 445.83 504.52C440.928 507.509 434.16 509.96 430.792 509.965C421.585 509.981 413.778 500.614 413.778 489.554C413.778 474.27 421.44 469.067 449.167 465.525C454.957 464.785 456.009 449.176 450.573 444.663C446.083 440.936 434.045 440.287 424.662 443.266C420.919 444.454 419.222 443.753 419.222 441.017C419.222 435.694 425.144 433.735 441.223 433.735C462.411 433.735 465.5 438.557 465.5 471.632C465.5 486.486 466.244 500.577 467.152 502.946C468.337 506.033 467.181 507.253 463.069 507.253C459.785 507.253 457.333 505.506 457.333 503.168ZM428.643 477.389C423.837 481.379 423.413 494.018 427.933 498.539C432.272 502.879 436.901 502.659 446.58 497.653C453.495 494.076 454.611 491.945 454.611 482.318V471.138L443.615 472.613C437.568 473.425 430.83 475.574 428.643 477.389Z" fill="white"/>
<path fill-rule="evenodd" clip-rule="evenodd" d="M725.989 500.736C742.02 498.851 745.277 502.312 731.872 506.986C704.499 516.531 685.989 501.583 686.01 469.949C686.023 449.78 692.76 437.854 706.246 434.13C725.014 428.946 738.91 438.507 742.215 458.875L743.843 468.911L695.528 470.494L695.999 479.984C696.328 486.603 698.749 491.435 704.002 495.955C710.607 501.638 713.312 502.226 725.989 500.736ZM697.086 453.399C695.481 458.006 694.167 462.205 694.167 462.731C694.167 463.256 702.742 463.686 713.222 463.686C731.734 463.686 732.278 463.492 732.278 456.879C732.278 450.366 723.933 439.18 719.073 439.18C710.109 439.18 699.694 445.915 697.086 453.399Z" fill="white"/>
<path d="M877.001 500.765C885.479 499.069 888.294 505.299 880.416 508.323C871.665 511.682 862.517 509.796 856.015 503.292C849.808 497.083 849.333 494.667 849.333 469.256C849.333 443.719 848.972 441.903 843.889 441.903C840.864 441.903 838.445 440.088 838.445 437.819C838.445 435.572 840.827 433.735 843.74 433.735C848.124 433.735 849.178 431.514 849.865 420.825C850.49 411.098 851.869 407.693 855.458 407.011C859.483 406.247 860.222 408.227 860.222 419.756C860.222 433.396 860.229 433.406 869.807 434.251C875.078 434.716 879.392 436.321 879.392 437.819C879.392 439.317 875.078 440.922 869.807 441.387L860.222 442.232V467.741C860.222 496.994 863.509 503.464 877.001 500.765Z" fill="white"/>
<path d="M939.167 489.374C939.167 494.409 937.078 500.131 934.332 502.617C925.164 510.916 896.3 510.68 893.501 502.283C892.619 499.635 895.598 499.256 906.212 500.664C921.906 502.747 928.278 499.499 928.278 489.418C928.278 483.055 916.915 471.855 910.458 471.855C906.131 471.855 892.889 456.42 892.889 451.376C892.889 445.12 904.733 434.06 911.945 433.582C928.965 432.456 936.445 433.8 936.445 437.986C936.445 441.438 934.272 441.918 924.875 440.537C916.91 439.367 911.697 440.032 908.14 442.67C900.586 448.274 904.171 459.338 914.994 463.822C930.219 470.13 939.167 479.588 939.167 489.374Z" fill="white"/>
<path d="M576.117 447.547C569.228 452.966 568.945 454.262 568.945 480.221C568.945 505.437 568.579 507.253 563.5 507.253C558.324 507.253 558.056 505.437 558.056 470.494C558.056 435.55 558.325 433.735 563.5 433.735C566.525 433.735 568.945 435.55 568.945 437.819C568.945 442.832 571.066 442.832 579.833 437.819C589.938 432.041 605.272 432.696 611.116 439.155C616.014 444.568 616.034 444.568 624.79 439.155C635.039 432.82 650.061 432.104 657.577 437.594C662.204 440.974 662.974 445.542 663.77 474.353C664.648 506.169 664.491 507.253 659.006 507.253C653.633 507.253 653.333 505.804 653.333 479.845C653.333 464.77 652.065 450.067 650.515 447.17C646.841 440.303 635.469 440.367 624.07 447.319L615.222 452.715V480.183C615.222 504.876 614.741 507.56 610.458 506.74C606.346 505.952 605.588 501.944 604.913 477.426C604.483 461.805 602.802 447.423 601.177 445.464C596.75 440.129 584.221 441.17 576.117 447.547Z" fill="white"/>
<path d="M773.111 452.715V479.984C773.111 505.437 772.749 507.253 767.667 507.253C762.491 507.253 762.222 505.437 762.222 470.493C762.222 435.55 762.491 433.734 767.667 433.734C770.692 433.734 773.111 435.55 773.111 437.819C773.111 442.832 775.233 442.832 784 437.819C794.123 432.03 810.188 432.7 816.667 439.18C821.479 443.995 822.111 448.257 822.111 475.939C822.111 505.437 821.796 507.253 816.667 507.253C811.582 507.253 811.222 505.437 811.222 479.845C811.222 464.77 809.954 450.067 808.404 447.17C804.73 440.303 793.358 440.367 781.958 447.319L773.111 452.715Z" fill="white"/>
<path d="M673.579 374.955C664.501 378.592 647.709 383.504 636.263 385.869C583.999 396.667 527.385 385.912 482.477 356.654C453.355 337.68 449.979 331.377 475.722 344.039C510.071 360.933 542.284 368.663 585.278 370.328C627.758 371.973 652.505 368.856 685.954 357.646C698.706 353.373 710.17 350.507 711.429 351.277C714.849 353.367 692.388 367.417 673.579 374.955Z" fill="white"/>
<path d="M728.268 328.737C738.816 330.717 739.887 334.613 734.858 352.724C733.3 358.337 728.911 366.302 725.106 370.423C719.74 376.235 718.638 376.694 720.192 372.47C724.473 360.839 727.779 341.195 725.791 339.206C724.642 338.057 715.807 337.335 706.157 337.604C696.507 337.872 689.245 337.066 690.02 335.813C692.541 331.733 718.571 326.918 728.268 328.737Z" fill="white"/>
<path fill-rule="evenodd" clip-rule="evenodd" d="M430.482 311.059L421.449 316.567C403.231 327.677 382.813 321.687 379.547 304.274C376.086 285.818 386.562 272.466 407.255 268.96C428.172 265.415 430.629 262.916 425.737 250.162C423.244 243.665 406.518 244.476 402.257 251.301C399.987 254.937 395.909 256.747 389.984 256.747C379.996 256.747 378.784 253.113 385.55 243.45C399.17 224.001 439.115 225.996 446.255 246.482C447.856 251.077 449.167 264.536 449.167 276.392C449.167 288.248 450.517 300.471 452.167 303.555C454.676 308.245 453.981 310.333 447.924 316.31L440.681 323.457L430.482 311.059ZM404.93 283.339C399.46 288.166 398.623 300.402 403.433 305.214C412.917 314.7 427.389 303.384 427.389 286.482C427.389 275.38 427.385 275.375 418.542 277.255C413.676 278.289 407.551 281.027 404.93 283.339Z" fill="white"/>
<path d="M501.769 249.058C493.136 250.721 490.081 262.115 490.04 292.825L490.044 292.825L490.003 322.096H470.948V232.241H480.475C489.051 232.241 490.006 232.989 490.017 239.729L490.027 247.217L496.452 239.184C505.358 228.051 520.742 227.818 529.406 238.686L535.412 246.221L539.836 239.467C545.635 230.615 558.025 227.954 568.416 233.329C572.835 235.615 577.212 239.469 578.142 241.893C579.072 244.317 579.833 263.355 579.833 284.199V322.096H561.222L560.319 287.956C559.418 253.87 557.855 248.662 548.528 248.662C539.332 248.662 537.63 254.025 536.278 287.272L534.917 320.735L514.5 322.425V288.558C514.5 252.968 512.569 246.977 501.769 249.058Z" fill="white"/>
<path fill-rule="evenodd" clip-rule="evenodd" d="M648.345 310.45L640.944 316.273C630.633 324.387 612.661 324.234 605.184 315.97C597.454 307.427 595.817 298.252 600.165 287.843C604.916 276.471 614.236 270.441 630.704 268.084C643.495 266.254 643.806 265.985 643.806 256.713C643.806 247.736 643.257 247.172 633.775 246.382C625.923 245.729 623.094 246.764 620.749 251.147C616.777 258.571 601.611 259.1 601.611 251.814C601.611 245.589 610.956 235.416 619.744 232.074C635.555 226.061 658.045 231.586 664.142 242.981C665.683 245.863 666.945 258.776 666.945 271.679C666.945 286.833 668.34 297.837 670.887 302.763C674.635 310.013 674.453 310.667 667.198 316.032L659.567 321.675L648.345 310.45ZM628.677 280.124C618.722 282.958 615.965 300.517 624.551 306.398C634.583 313.268 645.167 303.543 645.167 287.454C645.167 281.588 645.424 278.496 644.051 277.34C642.396 275.946 638.373 277.364 628.677 280.124Z" fill="white"/>
<path fill-rule="evenodd" clip-rule="evenodd" d="M832.996 276.757C833.001 295.313 827.369 309.028 816.591 316.704C806.451 323.926 787.073 323.936 777.907 316.724C767.837 308.801 762.222 294.707 762.222 277.35C762.222 248.973 774.919 231.599 795.989 231.142C818.619 230.651 832.988 248.363 832.996 276.757ZM786.818 251.122C782.304 259.558 783.295 295.372 788.238 302.43C790.568 305.758 794.786 308.482 797.611 308.482C806.788 308.482 811.222 298.025 811.222 276.383C811.222 265.386 809.954 254.019 808.404 251.122C804.603 244.017 790.62 244.017 786.818 251.122Z" fill="white"/>
<path d="M872.317 256.276C871.252 258.781 869.778 274.616 869.042 291.464L867.708 322.096H849.337V232.24H858.865C867.686 232.24 868.393 232.861 868.393 240.603V248.966L877.562 239.242C887.337 228.874 891.463 227.742 901.992 232.541C912.576 237.364 914.671 246.109 914.671 285.465V322.096H895.615L895.574 292.825C895.554 276.726 894.809 260.837 893.919 257.517C891.147 247.175 876.545 246.337 872.317 256.276Z" fill="white"/>
<path d="M746.57 318.112C743.949 317.098 736.213 314.97 729.377 313.384C719.582 311.112 713.918 311.389 702.655 314.691C690.437 318.274 688.149 318.324 686.888 315.037C684.167 307.946 688.698 297.832 705.096 274.388C714.057 261.576 721.389 250.527 721.389 249.836C721.389 249.144 714.651 248.578 706.417 248.578C691.596 248.578 691.445 248.496 691.445 240.409V232.24H720.028C748.58 232.24 748.611 232.247 748.611 238.944C748.611 242.728 741.496 255.82 732.278 269C723.295 281.843 715.945 292.917 715.945 293.609C715.945 294.301 719.659 294.867 724.199 294.867C728.738 294.867 736.701 296.643 741.893 298.812C749.84 302.134 751.333 304.118 751.333 311.357C751.333 318.433 750.49 319.629 746.57 318.112Z" fill="white"/>
</svg>
