<svg width="200" viewBox="0 0 579 579" fill="none" xmlns="http://www.w3.org/2000/svg">
<path d="M289.479 500.746C406.159 500.746 500.746 406.159 500.746 289.479C500.746 172.799 406.159 78.2112 289.479 78.2112C172.799 78.2112 78.2113 172.799 78.2113 289.479C78.2113 406.159 172.799 500.746 289.479 500.746Z" fill="#0D72B9"/>
<path d="M289.479 535.958C425.605 535.958 535.958 425.605 535.958 289.479C535.958 153.352 425.605 43 289.479 43C153.352 43 43 153.352 43 289.479C43 425.605 153.352 535.958 289.479 535.958Z" stroke="#FAAF3A" stroke-width="5" stroke-miterlimit="10"/>
<path d="M206.732 179.198V202.367L168.211 201.874V220.184L199.408 220.606V243.705H168.211V284.691L144.197 285.113V179.48L206.732 179.198Z" fill="white"/>
<path d="M213.775 178.071L248.352 177.719C253.188 177.338 258.05 178.002 262.607 179.667C267.164 181.332 271.309 183.958 274.761 187.367C280.363 194.182 283.203 202.853 282.718 211.662C282.873 220.47 280.016 229.066 274.62 236.029C272.411 238.696 269.615 240.817 266.451 242.226L281.592 283.775L256.732 284.198L242.225 245.324H237.718V283.423L213.704 284.55L213.775 178.071ZM237.577 202.155V221.169H248.493C255.535 221.169 259.479 218.212 259.268 211.944C259.056 205.676 255.606 202.155 248.211 202.155H237.577Z" fill="white"/>
<path d="M352.084 179.198V202.367L313.563 201.874V220.184L344.831 220.606V243.705H313.493V261.029L352.014 261.592V284.691L289.761 285.113V179.48L352.084 179.198Z" fill="white"/>
<path d="M421.592 179.198V202.367L383.07 201.874V220.184L414.338 220.606V243.705H383V261.029L421.521 261.592V284.691L359.268 285.113V179.48L421.592 179.198Z" fill="white"/>
<path d="M144.479 339.55C149.288 342.191 154.538 343.933 159.972 344.69C163 344.69 164.479 343.564 164.479 341.381C164.479 339.198 160.394 335.254 152.155 330.676C148.791 329.159 145.884 326.788 143.722 323.798C141.559 320.808 140.218 317.304 139.831 313.634C139.524 311.003 139.878 308.337 140.862 305.878C141.846 303.418 143.428 301.243 145.465 299.55C149.592 296.674 154.52 295.171 159.549 295.254C166.019 295.418 172.304 297.448 177.648 301.099L170.606 312.437C166.903 309.897 162.557 308.457 158.07 308.282C154.831 308.282 153.211 309.62 153.282 311.662C153.352 313.705 157.296 317.155 165.183 322.014C168.419 323.453 171.231 325.698 173.352 328.533C175.472 331.369 176.83 334.701 177.296 338.212C177.599 343.27 176.075 348.268 173 352.296C171.302 354.182 169.172 355.629 166.793 356.512C164.413 357.395 161.855 357.688 159.338 357.367C152.482 356.871 145.809 354.927 139.761 351.662L144.479 339.55Z" fill="white"/>
<path d="M195.042 332.93V355.535L181.662 356.381V296.944H194.69V319.972H207.155V296.733H220.254V355.395L207.296 356.381V333.212L195.042 332.93Z" fill="white"/>
<path d="M238.493 355.536L225.042 356.381V296.944H238.07L238.493 355.536Z" fill="white"/>
<path d="M242.789 296.31H262.155C264.882 296.094 267.623 296.473 270.189 297.422C272.754 298.37 275.083 299.865 277.014 301.803C280.134 305.65 281.715 310.519 281.451 315.465C281.573 320.415 279.953 325.25 276.873 329.127C274.997 331.063 272.699 332.541 270.158 333.445C267.618 334.348 264.903 334.654 262.225 334.338H256.239V355.465L242.859 356.38L242.789 296.31ZM256.169 320.535H262.296C266.451 320.535 268.493 318.845 268.352 315.324C268.211 311.803 266.31 309.831 262.155 309.831H256.099L256.169 320.535Z" fill="white"/>
<path d="M285.324 296.309H304.69C307.407 296.085 310.14 296.46 312.696 297.409C315.252 298.359 317.567 299.858 319.479 301.802C322.654 305.623 324.265 310.504 323.986 315.464C324.061 320.407 322.446 325.227 319.408 329.126C317.526 331.054 315.227 332.526 312.688 333.429C310.149 334.332 307.438 334.643 304.761 334.337H298.704V355.464L285.324 356.38V296.309ZM298.704 320.535H304.831C308.986 320.535 310.958 318.845 310.887 315.323C310.817 311.802 308.775 309.83 304.62 309.83H298.634L298.704 320.535Z" fill="white"/>
<path d="M341.31 355.536L328.211 356.381V296.944H341.239L341.31 355.536Z" fill="white"/>
<path d="M358.986 329.338V355.536L345.606 356.381V296.944H359.127L371.239 325.113V296.944H384.268V356.029H370.183L358.986 329.338Z" fill="white"/>
<path d="M427.577 339.126C427.69 343.987 426.123 348.737 423.141 352.577C421.254 354.519 418.944 356 416.391 356.904C413.838 357.807 411.111 358.11 408.422 357.788C405.705 358.013 402.972 357.637 400.417 356.688C397.861 355.739 395.545 354.239 393.634 352.295C390.473 348.459 388.821 343.601 388.986 338.633V314.197C388.824 309.264 390.393 304.431 393.422 300.535C395.296 298.594 397.593 297.113 400.135 296.209C402.676 295.305 405.392 295.002 408.07 295.324C410.795 295.131 413.53 295.521 416.092 296.468C418.654 297.416 420.985 298.898 422.93 300.816C425.755 304.071 427.371 308.199 427.507 312.507L414.549 314.126V313.352C414.549 310.535 412.507 309.126 408.352 309.056C404.197 308.985 402.084 310.816 402.084 314.338V338.704C402.084 342.366 404.197 344.197 408.352 344.197C412.507 344.197 414.549 342.507 414.549 338.915V333.281H407.507L406.662 320.324H427.789L427.577 339.126Z" fill="white"/>
<path d="M244.973 496.05C249.882 494.719 253.493 490.232 253.493 484.902C253.493 478.524 248.322 473.353 241.944 473.353C235.565 473.353 230.394 478.524 230.394 484.902C230.394 488.278 231.843 491.316 234.153 493.428C237.723 494.394 241.33 495.269 244.973 496.05Z" fill="white"/>
<path d="M351.227 491.58C346.538 493.011 341.78 494.283 336.959 495.39C333 493.558 330.254 489.551 330.254 484.902C330.254 478.524 335.424 473.353 341.803 473.353C348.181 473.353 353.352 478.524 353.352 484.902C353.352 487.39 352.565 489.694 351.227 491.58Z" fill="white"/>
<path d="M295.746 388.845H203.563C203.055 388.845 202.551 388.945 202.081 389.14C201.611 389.334 201.184 389.62 200.825 389.979C200.465 390.339 200.18 390.766 199.985 391.236C199.79 391.706 199.69 392.209 199.69 392.718V477.225C199.69 477.73 199.791 478.231 199.986 478.697C200.182 479.163 200.468 479.585 200.829 479.939C201.189 480.293 201.617 480.572 202.086 480.759C202.556 480.946 203.058 481.037 203.563 481.028H223.141C223.989 476.664 226.329 472.731 229.76 469.903C233.191 467.075 237.498 465.529 241.944 465.529C246.389 465.529 250.697 467.075 254.127 469.903C257.558 472.731 259.898 476.664 260.746 481.028H295.958C296.966 481.028 297.934 480.627 298.647 479.914C299.36 479.201 299.761 478.234 299.761 477.225V392.718C299.761 392.197 299.656 391.682 299.453 391.203C299.249 390.723 298.951 390.29 298.577 389.928C298.202 389.567 297.758 389.284 297.272 389.098C296.786 388.912 296.267 388.826 295.746 388.845Z" fill="white"/>
<path d="M366.662 434.972H307.084L307.225 408C307.244 406.985 307.66 406.018 308.384 405.307C309.109 404.596 310.083 404.197 311.099 404.197H341.803C342.397 404.194 342.985 404.326 343.521 404.582C344.058 404.838 344.53 405.212 344.901 405.676L366.662 434.972Z" fill="white"/>
<path d="M368.704 442.648H307.084V477.225C307.103 478.24 307.519 479.208 308.244 479.919C308.968 480.63 309.943 481.028 310.958 481.028H322.859C323.708 476.664 326.048 472.731 329.478 469.903C332.909 467.076 337.216 465.529 341.662 465.529C346.108 465.529 350.415 467.076 353.846 469.903C357.276 472.731 359.616 476.664 360.465 481.028H364.69C365.195 481.038 365.697 480.946 366.167 480.759C366.637 480.572 367.064 480.294 367.425 479.94C367.785 479.585 368.072 479.163 368.267 478.697C368.463 478.231 368.563 477.731 368.563 477.225L368.704 442.648Z" fill="white"/>
</svg>
