<svg width="200" viewBox="0 0 579 579" fill="none" xmlns="http://www.w3.org/2000/svg">
<path d="M290.264 500.635C406.891 500.635 501.436 406.07 501.436 289.419C501.436 172.767 406.891 78.2026 290.264 78.2026C173.636 78.2026 79.0911 172.767 79.0911 289.419C79.0911 406.07 173.636 500.635 290.264 500.635Z" fill="#7AB643"/>
<path d="M115.202 317.159V247.176C115.187 245.894 114.741 244.654 113.935 243.656C113.371 243.041 112.667 242.572 111.882 242.29C111.097 242.007 110.255 241.921 109.43 242.037V216.268C111.587 216.258 113.72 215.802 115.694 214.931C117.781 214.095 119.746 212.982 121.537 211.622C123.24 210.366 124.841 208.977 126.323 207.468C127.492 206.333 128.597 205.135 129.632 203.877H150.045V317.159H115.202Z" fill="white"/>
<path d="M147.722 261.257C147.655 253.534 149.04 245.868 151.805 238.657C154.343 231.875 158.114 225.621 162.927 220.211C167.619 214.963 173.347 210.744 179.75 207.82C186.39 204.835 193.587 203.292 200.867 203.292C208.147 203.292 215.344 204.835 221.984 207.82C228.398 210.761 234.145 214.977 238.878 220.211C243.738 225.599 247.535 231.858 250.07 238.657C255.513 253.281 255.513 269.375 250.07 283.998C247.563 290.811 243.763 297.075 238.878 302.444C234.143 307.657 228.394 311.849 221.984 314.765C215.344 317.749 208.147 319.292 200.867 319.292C193.587 319.292 186.39 317.749 179.75 314.765C173.351 311.865 167.623 307.67 162.927 302.444C158.084 297.056 154.31 290.796 151.805 283.998C149.034 276.74 147.649 269.026 147.722 261.257ZM187 261.257C186.835 265.823 188.036 270.333 190.449 274.212C191.551 275.968 193.108 277.393 194.955 278.335C196.802 279.278 198.869 279.702 200.938 279.563C203.025 279.697 205.111 279.272 206.979 278.332C208.847 277.391 210.431 275.969 211.567 274.212C213.869 270.296 215.083 265.835 215.083 261.292C215.083 256.749 213.869 252.289 211.567 248.373C210.431 246.616 208.847 245.194 206.979 244.253C205.111 243.312 203.025 242.888 200.938 243.022C198.869 242.883 196.802 243.307 194.955 244.249C193.108 245.192 191.551 246.617 190.449 248.373C188.046 252.23 186.845 256.715 187 261.257Z" fill="white"/>
<path d="M251.408 261.257C251.359 253.542 252.718 245.883 255.42 238.657C257.986 231.888 261.753 225.639 266.542 220.211C271.263 214.995 276.984 210.781 283.365 207.82C290.008 204.844 297.204 203.306 304.483 203.306C311.761 203.306 318.957 204.844 325.6 207.82C331.992 210.798 337.733 215.009 342.494 220.211C347.353 225.6 351.15 231.858 353.686 238.657C359.128 253.281 359.128 269.375 353.686 283.998C351.178 290.811 347.378 297.075 342.494 302.444C337.73 307.626 331.988 311.813 325.6 314.765C318.957 317.741 311.761 319.279 304.483 319.279C297.204 319.279 290.008 317.741 283.365 314.765C276.988 311.83 271.266 307.639 266.542 302.444C261.724 297.038 257.953 290.783 255.42 283.998C252.701 276.728 251.341 269.019 251.408 261.257ZM290.686 261.257C290.534 265.812 291.707 270.312 294.065 274.212C295.29 275.858 296.882 277.195 298.716 278.115C300.549 279.036 302.572 279.516 304.623 279.516C306.675 279.516 308.698 279.036 310.531 278.115C312.364 277.195 313.957 275.858 315.182 274.212C317.443 270.282 318.632 265.827 318.632 261.293C318.632 256.758 317.443 252.303 315.182 248.373C313.957 246.727 312.364 245.391 310.531 244.47C308.698 243.549 306.675 243.069 304.623 243.069C302.572 243.069 300.549 243.549 298.716 244.47C296.882 245.391 295.29 246.727 294.065 248.373C291.717 252.251 290.543 256.726 290.686 261.257Z" fill="white"/>
<path d="M355.023 230.067C355.008 226.219 355.7 222.4 357.065 218.802C358.3 215.374 360.188 212.218 362.625 209.509C364.953 206.862 367.806 204.728 371.002 203.243C374.317 201.744 377.923 200.999 381.561 201.06C385.197 201.015 388.799 201.76 392.119 203.243C395.347 204.744 398.242 206.874 400.636 209.509C403.149 212.174 405.069 215.341 406.268 218.802C407.633 222.4 408.325 226.219 408.309 230.067C408.332 233.962 407.64 237.828 406.268 241.473C405.067 244.913 403.148 248.057 400.636 250.696C398.237 253.288 395.34 255.372 392.119 256.821C388.816 258.362 385.205 259.132 381.561 259.074C377.914 259.147 374.301 258.376 371.002 256.821C367.813 255.386 364.96 253.3 362.625 250.696C360.184 248.017 358.295 244.883 357.065 241.473C355.692 237.828 355 233.962 355.023 230.067ZM366.849 319.975L446.109 197.892H469.127L390.078 319.975H366.849ZM374.592 230.067C374.541 232.351 375.152 234.601 376.352 236.544C376.916 237.396 377.694 238.085 378.608 238.542C379.522 238.999 380.54 239.209 381.561 239.149C382.613 239.225 383.666 239.025 384.617 238.568C385.568 238.111 386.382 237.413 386.981 236.544C388.131 234.58 388.738 232.344 388.738 230.067C388.738 227.79 388.131 225.554 386.981 223.59C386.391 222.708 385.58 221.997 384.628 221.527C383.677 221.058 382.619 220.846 381.561 220.914C380.535 220.87 379.515 221.093 378.602 221.562C377.688 222.031 376.913 222.73 376.352 223.59C375.152 225.534 374.541 227.783 374.592 230.067ZM428.863 288.152C428.829 284.285 429.497 280.444 430.834 276.816C432.097 273.401 433.983 270.25 436.395 267.523C438.748 264.903 441.594 262.774 444.772 261.257C448.109 259.742 451.736 258.973 455.401 259.004C459.04 258.996 462.64 259.764 465.959 261.257C469.173 262.75 472.066 264.854 474.477 267.452C476.912 270.176 478.821 273.327 480.108 276.746C482.734 284.099 482.734 292.134 480.108 299.487C478.844 302.896 476.931 306.028 474.477 308.71C472.063 311.287 469.17 313.368 465.959 314.835C462.64 316.328 459.04 317.096 455.401 317.088C451.736 317.119 448.109 316.35 444.772 314.835C441.604 313.365 438.757 311.283 436.395 308.71C433.965 306.022 432.077 302.89 430.834 299.487C429.494 295.86 428.826 292.018 428.863 288.152ZM448.432 288.152C448.348 290.417 448.962 292.654 450.192 294.558C450.731 295.439 451.502 296.155 452.421 296.627C453.34 297.098 454.371 297.309 455.401 297.234C456.461 297.317 457.524 297.112 458.478 296.641C459.432 296.17 460.241 295.451 460.821 294.558C461.994 292.632 462.581 290.406 462.51 288.152C462.582 285.875 461.996 283.626 460.821 281.674C460.231 280.792 459.42 280.081 458.468 279.612C457.517 279.142 456.459 278.931 455.401 278.999C454.373 278.94 453.348 279.156 452.432 279.627C451.516 280.097 450.742 280.804 450.192 281.674C448.961 283.604 448.347 285.864 448.432 288.152Z" fill="white"/>
<path d="M290.264 535.838C426.329 535.838 536.632 425.512 536.632 289.419C536.632 153.326 426.329 43 290.264 43C154.198 43 43.8956 153.326 43.8956 289.419C43.8956 425.512 154.198 535.838 290.264 535.838Z" stroke="#518C40" stroke-width="4" stroke-miterlimit="10"/>
<path d="M283.084 168.181C287.17 168.8 291.343 168.488 295.292 167.269C299.241 166.05 302.864 163.955 305.89 161.14C311.685 164.625 317.027 168.811 321.799 173.602C322.827 174.611 324.125 175.301 325.536 175.588C326.948 175.875 328.412 175.748 329.753 175.221C330.766 174.804 331.696 174.207 332.498 173.461C333.185 172.723 333.715 171.853 334.056 170.904C334.398 169.955 334.543 168.946 334.484 167.94C334.424 166.933 334.162 165.948 333.712 165.046C333.262 164.144 332.633 163.342 331.865 162.689C318.063 148.797 300.574 139.147 281.465 134.879C292.251 133.958 303.114 134.935 313.563 137.765C314.186 137.926 314.838 137.928 315.462 137.773C316.085 137.618 316.661 137.31 317.136 136.877C317.611 136.444 317.97 135.899 318.182 135.292C318.394 134.685 318.452 134.035 318.35 133.4C318.131 131.713 317.581 130.086 316.731 128.613C306.383 108.899 276.96 121.572 249.789 109.815C249.059 109.509 248.256 109.423 247.478 109.566C246.699 109.708 245.979 110.074 245.405 110.619C244.831 111.163 244.427 111.863 244.243 112.632C244.059 113.402 244.103 114.209 244.369 114.954C250.915 134.104 266.26 164.59 283.084 168.181Z" fill="#518C40"/>
<path d="M87.0584 456.919V382.345H0L31.017 419.632L0 456.919H87.0584Z" fill="#518C40"/>
<path d="M491.88 456.919V382.345H579L547.983 419.632L579 456.919H491.88Z" fill="#518C40"/>
<rect x="44" y="354.919" width="496" height="74" rx="10" fill="#518C40"/>
<rect x="71" y="382.919" width="27" height="74" rx="10" fill="#518C40"/>
<rect x="477" y="382.919" width="27" height="74" rx="10" fill="#518C40"/>
<path fill-rule="evenodd" clip-rule="evenodd" d="M388.847 411.507C391.23 408.472 392.461 404.691 392.321 400.835L392.818 381.787C392.839 377.86 391.376 374.071 388.723 371.177C387.228 369.665 385.421 368.498 383.428 367.759C381.435 367.019 379.304 366.724 377.185 366.895C375.1 366.634 372.983 366.863 371.001 367.563C369.02 368.263 367.229 369.415 365.771 370.928C363.388 373.963 362.157 377.744 362.297 381.601V400.649C362.139 404.51 363.421 408.291 365.895 411.259C367.39 412.771 369.197 413.937 371.19 414.677C373.183 415.417 375.314 415.711 377.433 415.54C379.518 415.801 381.635 415.572 383.617 414.872C385.598 414.172 387.389 413.02 388.847 411.507ZM377.433 405.178C374.207 405.116 372.594 403.689 372.594 400.835V382.159C372.594 379.429 374.145 378.002 377.433 378.064C380.721 378.126 382.334 379.553 382.334 382.407V401.021C382.334 403.813 380.659 405.24 377.433 405.178ZM140.463 413.803L129.98 414.299V377.63H121.047V367.516H149.334V377.692H140.153L140.463 413.803ZM68.2559 413.802V393.389L76.9407 413.988H88.1068V367.95H77.9332V390.1L68.38 367.95H57.8342V414.299L68.2559 413.802ZM101.258 414.05L102.437 407.846L112.362 407.722L113.665 414.361L124.831 413.802L114.533 367.95H101.258L90.5882 414.05H101.258ZM107.461 381.414L110.501 398.042L104.422 397.98L107.461 381.414ZM172.845 400.772C172.845 403.564 171.232 404.929 168.007 404.929C164.719 404.867 163.292 403.44 163.292 400.586V367.639H153.056V400.772C152.898 404.633 154.181 408.414 156.654 411.382C158.149 412.894 159.956 414.061 161.95 414.8C163.943 415.54 166.074 415.834 168.193 415.663C170.278 415.924 172.395 415.696 174.376 414.996C176.357 414.296 178.148 413.143 179.607 411.63C181.99 408.596 183.221 404.815 183.081 400.958V367.825H172.845V400.772ZM186.431 367.64H201.567C203.684 367.494 205.807 367.8 207.797 368.538C209.786 369.276 211.596 370.429 213.105 371.921C215.544 374.898 216.764 378.69 216.517 382.531C216.572 386.357 215.3 390.084 212.919 393.079C211.932 394.24 210.704 395.171 209.321 395.809L215.959 413.927H205.103L198.899 396.988H196.976V413.616L186.493 414.113L186.431 367.64ZM196.852 378.188V386.502H201.629C204.855 386.502 206.405 385.199 206.343 382.469C206.281 379.739 204.731 378.188 201.505 378.188H196.852ZM229.172 414.051L230.413 407.846L240.338 407.66L241.579 414.299L252.807 413.74L242.447 367.888H229.172L218.564 414.051H229.172ZM235.251 381.414L238.415 398.042L232.212 397.98L235.251 381.414ZM255.288 368.013L265.772 367.516V404.124H281.653V414.299L256.281 413.927L255.288 368.013ZM311.119 367.64H296.045V414.424L306.528 413.927V397.299H311.243C313.331 397.528 315.445 397.278 317.423 396.569C319.4 395.859 321.19 394.708 322.657 393.204C324.994 390.145 326.219 386.38 326.131 382.532C326.378 378.69 325.158 374.899 322.719 371.922C321.2 370.425 319.38 369.269 317.38 368.531C315.38 367.793 313.245 367.489 311.119 367.64ZM311.243 386.254H306.466V377.94H311.119C314.345 377.94 315.895 379.491 315.957 382.221C316.019 384.951 314.469 386.254 311.243 386.254ZM329.171 367.639H344.245C346.363 367.481 348.49 367.781 350.481 368.52C352.473 369.259 354.281 370.419 355.783 371.921C358.245 374.889 359.486 378.681 359.257 382.531C359.264 386.359 357.974 390.077 355.597 393.079C354.61 394.239 353.383 395.171 351.999 395.809L358.637 413.926H347.781L341.577 396.987H339.592V413.616L329.109 414.112L329.171 367.639ZM339.53 378.187V386.502H344.307C347.533 386.502 349.084 385.199 349.022 382.469C348.959 379.739 347.409 378.187 344.183 378.187H339.53ZM410.993 367.515C413.111 367.357 415.239 367.657 417.23 368.396C419.221 369.135 421.03 370.295 422.532 371.796C425.005 374.764 426.288 378.546 426.13 382.406V399.531C426.275 403.388 425.044 407.171 422.656 410.203C421.197 411.716 419.406 412.869 417.425 413.569C415.444 414.269 413.327 414.497 411.242 414.236H395.919V367.577L410.993 367.515ZM406.155 378.187V403.626H411.428C414.653 403.626 416.266 402.261 416.266 399.531V382.469C416.266 379.614 414.653 378.187 411.428 378.187H406.155ZM449.579 400.772C449.579 403.564 447.966 404.929 444.74 404.929C441.514 404.867 439.901 403.44 439.901 400.586V367.639H429.728V400.772C429.599 404.628 430.878 408.4 433.326 411.382C434.82 412.894 436.628 414.061 438.621 414.8C440.614 415.54 442.745 415.834 444.864 415.663C446.958 415.924 449.085 415.696 451.076 414.996C453.068 414.297 454.869 413.144 456.34 411.63C458.678 408.575 459.883 404.803 459.752 400.958V367.825H449.579V400.772ZM493.25 401.021C493.321 404.81 492.095 408.51 489.777 411.507C488.315 413.016 486.524 414.165 484.543 414.865C482.563 415.565 480.447 415.796 478.362 415.54C476.234 415.707 474.095 415.411 472.092 414.672C470.09 413.933 468.271 412.769 466.762 411.259C464.344 408.26 463.068 404.5 463.164 400.649V381.6C463.056 377.748 464.283 373.978 466.638 370.928C468.099 369.419 469.891 368.27 471.871 367.57C473.852 366.87 475.967 366.639 478.052 366.895C480.181 366.723 482.321 367.017 484.324 367.757C486.328 368.496 488.146 369.663 489.653 371.176C491.98 374.009 493.252 377.562 493.25 381.228L482.891 382.407V381.848C482.891 378.994 481.278 377.567 478.052 377.505C474.826 377.443 473.214 378.87 473.214 381.6V400.587C473.214 403.441 474.826 404.868 478.052 404.93C481.278 404.992 482.891 403.565 482.891 400.773V399.78L493.25 401.021ZM505.533 414.299L516.079 413.803L515.831 377.692H524.95V367.516H496.662V377.63H505.533V414.299Z" fill="white"/>
</svg>
