<svg width="1471" height="882" viewBox="0 0 1471 882" fill="none" xmlns="http://www.w3.org/2000/svg">
<g clip-path="url(#clip0)">
<path fill-rule="evenodd" clip-rule="evenodd" d="M68.4 0H1402.18C1439.96 0 1470.58 26.32 1470.58 58.78V822.94C1470.58 855.4 1439.96 881.72 1402.18 881.72H68.4C30.62 881.72 0 855.4 0 822.94V58.78C0 26.32 30.62 0 68.4 0Z" fill="#FFE7A8"/>
<path fill-rule="evenodd" clip-rule="evenodd" d="M804.71 155.77C650.91 116.47 495.14 212.32 456.81 369.77C418.48 527.22 512.07 686.77 665.81 725.99C819.55 765.21 975.44 669.41 1013.81 511.99C1052.18 354.57 958.51 195 804.68 155.77" fill="#F8931A"/>
<path fill-rule="evenodd" clip-rule="evenodd" d="M809.68 398.42C800.8 434.86 745.99 416.35 728.18 411.79L743.87 347.43C761.65 351.95 818.94 360.43 809.68 398.43V398.42ZM799.92 502.32C790.22 542.32 724.33 520.72 702.99 515.32L720.27 444.32C741.64 449.78 810.09 460.57 799.92 502.32ZM871.92 398.99C877.62 359.9 848.52 338.88 808.73 324.86L821.66 271.86L790.15 263.81L777.6 315.42C769.2 313.3 760.777 311.263 752.33 309.31L765 257.4L733.5 249.4L720.56 302.4C713.86 300.86 707.17 299.253 700.49 297.58V297.4L657.08 286.3L648.68 320.74C648.68 320.74 672.07 326.24 671.57 326.56C684.33 329.82 686.57 338.46 686.27 345.31L671.57 405.68C672.665 405.976 673.743 406.33 674.8 406.74L671.51 405.91L650.91 490.44C649.35 494.44 645.38 500.38 636.45 498.08C636.77 498.58 613.55 492.26 613.55 492.26L598 529.09L639 539.55C646.64 541.49 654.1 543.55 661.45 545.49L648.45 599.07L679.9 607.07L692.83 554.07C701.41 556.42 709.76 558.66 717.9 560.71L705 613.5L736.51 621.5L749.51 568.01C803.23 578.44 843.61 574.24 860.6 524.51C874.33 484.45 859.93 461.35 831.68 446.27C852.25 441.43 867.77 427.58 871.89 398.96" fill="white"/>
</g>
<defs>
<clipPath>
<rect width="1470.58" height="881.72" fill="white"/>
</clipPath>
</defs>
</svg>
