<svg width="660" height="417" xmlns="http://www.w3.org/2000/svg" fill="none">
 <defs>
  <clipPath id="clip0">
   <rect id="svg_1" fill="white" height="417" width="660"/>
  </clipPath>
 </defs>
 <g>
  <title>Layer 1</title>
  <g stroke="null" id="svg_2" clip-path="url(#clip0)">
   <path stroke="null" id="svg_3" fill="#3F22AB" d="m612.06732,404.00001l-554.13467,0c-10.01796,0.03938 -19.64159,-3.83311 -26.75496,-10.76516c-7.11324,-6.93205 -11.13385,-16.35543 -11.17773,-26.19981l0,-317.06885c0.02173,-4.87578 1.02054,-9.69971 2.93944,-14.19621c1.91889,-4.49641 4.72028,-8.57753 8.24421,-12.01008c3.5239,-3.43263 7.70137,-6.14955 12.29378,-7.99566c4.59251,-1.84611 9.50995,-2.78525 14.47177,-2.76382l554.08475,0c4.96364,-0.02358 9.88241,0.91397 14.47759,2.75912c4.59423,1.84515 8.77323,4.56173 12.29932,7.99454c3.52514,3.43283 6.32864,7.51461 8.24823,12.01214c1.91959,4.49753 2.919,9.32277 2.94095,14.19996l0,317.06885c-0.04391,9.84439 -4.06445,19.26777 -11.17773,26.19981c-7.11327,6.93205 -16.737,10.80454 -26.75496,10.76516"/>
   <path stroke="#142688" id="svg_4" stroke-opacity="0.2" d="m612.06636,395.85464l-554.13438,0c-7.81945,0.03844 -15.33458,-2.97516 -20.89328,-8.37978c-5.5588,-5.40368 -8.70599,-12.75673 -8.74985,-20.43983l0,-317.06885c0.04823,-7.68545 3.19917,-15.03775 8.76054,-20.44161c5.56128,-5.40396 13.07823,-8.41738 20.8992,-8.37837l554.08532,0c7.82059,-0.03901 15.33764,2.97441 20.89882,8.37837c5.56118,5.40386 8.71214,12.75616 8.76082,20.44161l0,317.06885c0,15.85097 -13.21377,28.81961 -29.64341,28.81961l0.01623,0z"/>
   <path stroke="null" id="svg_5" fill="white" d="m315.54348,260.76179c-0.82759,-0.51758 -1.00514,-9.49652 -0.83523,-42.1258l0.21668,-41.46757l7.51609,0l7.51609,0l0.26823,2.87765c0.14795,1.58275 0.55745,3.17019 0.91064,3.52744c0.35318,0.35724 2.60114,-0.64792 4.99514,-2.23442c7.15241,-4.73888 12.53796,-5.58277 21.294,-3.3371c18.99546,4.87109 28.86927,26.83554 20.47882,45.55572c-5.40941,12.06943 -19.44505,19.76285 -31.89518,17.48342c-2.84073,-0.5204 -6.92427,-2.0422 -9.17796,-3.42242c-2.23364,-1.36709 -4.22386,-2.48477 -4.42336,-2.48477c-0.1995,0 -0.36177,5.20396 -0.36177,11.56404c0,6.4004 -0.38659,12.27571 -0.86482,13.15523c-0.74836,1.37647 -1.78977,1.58932 -7.72514,1.57806c-3.77332,-0.00563 -7.33377,-0.30849 -7.91223,-0.66948l0,0zm41.35759,-38.14547c10.04564,-6.5448 8.88682,-22.63487 -2.00455,-27.8257c-5.41418,-2.57947 -10.78064,-2.44539 -15.70036,0.39288c-10.99064,6.34133 -10.7205,22.75489 0.46677,28.34609c5.08964,2.54384 12.537,2.14909 17.23814,-0.91327zm49.51896,36.99404c-5.1555,-2.59354 -8.19859,-6.65919 -9.27532,-12.39198c-0.56986,-3.03517 -0.79609,-18.05726 -0.63286,-41.91201l0.25582,-37.18251l2.08759,-3.66809c2.33195,-4.09659 6.18927,-7.01643 10.93241,-8.27382c2.06468,-0.54665 27.49855,-0.76043 73.22223,-0.61416l70.05791,0.22316l4.04536,2.46696c2.65555,1.61932 4.71164,3.71028 5.98882,6.09004l1.94345,3.62402l0,40.3949c0,40.25987 -0.00668,40.40802 -1.8795,44.05361c-1.09773,2.13784 -3.38291,4.68637 -5.49914,6.13504l-3.62155,2.47727l-71.95746,0.22222l-71.95841,0.22222l-3.70936,-1.86686zm114.66192,-15.1843c1.82127,-1.26677 4.00909,-3.63433 4.86245,-5.26022c3.23209,-6.1613 17.38705,-44.64995 16.67782,-45.3485c-0.40377,-0.39663 -2.352,-0.60478 -4.33077,-0.4632l-3.59768,0.25785l-4.31073,12.74454c-2.64982,7.83407 -4.73359,12.74454 -5.40941,12.74454c-0.60423,0 -1.99595,-2.40507 -3.09273,-5.3446c-1.09677,-2.93953 -3.32468,-8.76703 -4.95123,-12.94988l-2.95623,-7.60528l-3.64445,0c-2.00359,0 -3.85827,0.3413 -4.11982,0.7595c-0.2625,0.41725 2.72141,8.81297 6.63123,18.65736c3.90982,9.84532 7.1085,18.56266 7.1085,19.37185c0,0.81013 -1.07673,2.65918 -2.39114,4.10784c-1.88236,2.07408 -3.26073,2.73325 -6.47277,3.09612c-3.89932,0.4407 -4.09214,0.58322 -4.34605,3.18707c-0.41523,4.25318 1.071,5.36054 6.4575,4.81389c3.11755,-0.31693 5.628,-1.19832 7.8855,-2.76888l0,0zm-33.97323,-15.82472c2.331,-1.39897 2.77868,-1.44398 3.6855,-0.3685c0.70541,0.83732 2.24318,1.14675 4.86245,0.97984l3.83155,-0.24566l-0.01241,-13.56592c-0.01336,-15.64469 -0.77223,-18.24667 -6.18736,-21.24246c-4.24391,-2.34881 -13.90964,-2.46133 -18.92005,-0.22035c-4.00432,1.78997 -7.20968,5.45618 -6.86223,7.84813c0.35509,2.44164 5.77882,2.82326 8.06973,0.56822c2.56773,-2.5279 4.71927,-3.39804 8.40668,-3.39804c4.19905,0 6.95864,2.34975 6.57777,5.59965c-0.252,2.14722 -0.45245,2.22504 -6.95959,2.70231c-8.76464,0.64323 -12.28786,1.86592 -15.38918,5.34367c-4.35655,4.88422 -3.28077,11.96066 2.39114,15.72345c3.77427,2.50446 12.54846,2.65074 16.50505,0.27567l0.00095,0zm-11.42209,-6.62262c-2.07423,-2.04314 -2.10382,-3.40179 -0.12409,-5.80874c1.23614,-1.50212 2.77105,-2.00845 7.6545,-2.52228c3.36,-0.35349 6.42218,-0.45195 6.80495,-0.21847c1.63514,0.99485 0.63955,5.444 -1.74395,7.79c-2.05705,2.02532 -3.108,2.4032 -6.68086,2.4032c-3.12614,0 -4.67823,-0.43132 -5.91055,-1.6437l0,0zm-43.59982,-0.38444c0.15273,-4.62449 0.62045,-7.60809 1.25236,-8.00378c0.55555,-0.34693 4.20382,-0.6451 8.10791,-0.66198c5.04477,-0.02157 8.06496,-0.46507 10.43891,-1.53212c11.80964,-5.31085 14.90427,-21.53126 5.95732,-31.22468c-4.02818,-4.36476 -7.58482,-5.3643 -20.37382,-5.72623c-8.65582,-0.24566 -12.25159,-0.06095 -13.15364,0.67605c-1.05095,0.85889 -1.24186,5.01736 -1.24186,27.08777c0,14.33948 0.26823,26.33671 0.59564,26.65832c0.32741,0.32255 2.30045,0.47726 4.38423,0.34318l3.78955,-0.24379l0.24341,-7.37274zm0.53741,-17.95787c-0.231,-0.59166 -0.31309,-5.49369 -0.18232,-10.89362l0.23673,-9.81907l6.68086,-0.21941c5.52014,-0.1819 7.161,0.07126 9.44523,1.45711c6.56918,3.98407 6.82309,13.92223 0.48014,18.83364c-1.84895,1.43179 -3.38291,1.71684 -9.2295,1.71684c-5.00564,0 -7.13236,-0.30755 -7.43114,-1.07548l0,0zm-173.23474,40.45491c-16.56709,-5.77592 -24.71032,-23.85944 -17.01286,-37.7826c2.31859,-4.19505 8.91927,-10.11818 10.68805,-9.59216c0.49255,0.14721 2.20595,2.72856 3.80577,5.7356l2.9085,5.46931l-2.18018,2.30099c-4.60186,4.85515 -5.32255,9.66061 -2.14391,14.30666c4.41286,6.44916 15.582,8.84204 23.97723,5.13738c15.86741,-7.00237 15.204,-33.70476 -1.008,-40.57117c-3.77427,-1.59869 -5.37123,-1.79841 -11.49941,-1.43742c-7.26982,0.42663 -14.73341,2.61698 -17.58846,5.16083c-0.83236,0.74168 -2.18209,1.2227 -2.99918,1.06705c-1.85373,-0.35068 -7.34045,-9.29024 -6.70377,-10.92268c0.61186,-1.56963 6.111,-4.95923 11.62064,-7.16458c3.28555,-1.31459 6.77441,-1.8453 13.98123,-2.12753c8.26636,-0.32255 10.34059,-0.13033 14.889,1.38585c10.02082,3.33991 17.61327,9.80125 21.89441,18.63485c10.16973,20.9771 0.47823,44.58432 -20.85873,50.8075c-6.1635,1.79747 -15.9705,1.6137 -21.77032,-0.40788zm-126.9011,-3.23208c-9.19132,-1.88749 -17.85267,-8.59356 -19.93416,-15.43278c-1.71217,-5.62684 -1.72,-5.61934 6.14861,-6.16599c8.18141,-0.56822 9.01091,-0.38069 10.25755,2.31224c1.70482,3.68309 8.95936,5.9447 14.42223,4.49697c3.91555,-1.03798 5.77023,-2.76232 5.77023,-5.3643c0,-2.73512 -2.60686,-4.19692 -12.54273,-7.03237c-10.15446,-2.89734 -15.39014,-5.42055 -18.87136,-9.09333c-5.02415,-5.30053 -5.79046,-11.86033 -2.20023,-18.83082c4.4415,-8.61982 13.39514,-12.8308 25.68109,-12.07599c13.28155,0.81576 22.96541,8.34602 22.96541,17.85754l0,2.49321l-7.57241,0c-7.57146,0 -7.57241,0 -10.32818,-2.87765c-2.51045,-2.62073 -3.17386,-2.87765 -7.41395,-2.87765c-7.96664,0 -11.57959,5.11113 -6.10909,8.64044c1.02041,0.65729 5.97641,2.26067 11.0145,3.56213c13.87909,3.58464 18.01514,6.13598 20.89023,12.88519c3.28841,7.71967 0.70636,17.08773 -6.12532,22.22324c-6.19214,4.65449 -17.72114,6.99112 -26.05241,5.27991l0,0zm42.75409,0.16971c-0.82759,-0.51758 -1.00514,-9.66061 -0.83523,-42.94718l0.21668,-42.29082l7.51609,0l7.51609,0l0.22909,13.7722c0.24245,14.55326 0.62618,15.74033 3.93082,12.14444c2.65173,-2.88421 10.27568,-5.17208 15.498,-4.65074c10.78541,1.07642 17.16368,6.39946 20.35759,16.99022c1.05764,3.50587 1.323,8.62919 1.323,25.52658c0,24.15011 0.75982,22.13791 -8.35036,22.13791c-9.03,0 -8.35132,1.46742 -8.35132,-18.06476c0,-20.47734 -0.67773,-25.04088 -4.18473,-28.18388c-2.10477,-1.88655 -3.27791,-2.26161 -7.07414,-2.26161c-3.87832,0 -4.97795,0.36943 -7.44068,2.4979c-4.02055,3.47587 -4.68395,7.42525 -4.68395,27.87633c0,14.86925 -0.17564,17.204 -1.32109,17.63719c-1.93009,0.72855 -13.1145,0.58603 -14.34586,-0.18378l0,0z"/>
  </g>
 </g>
</svg>