<svg xmlns="http://www.w3.org/2000/svg" width="102" height="44" fill="none"><rect x=".5" y=".5" width="101" height="43" rx="3.5" fill="#fff" stroke="#D2D0CC"/><path d="M49.978 16.223c-.557-.303-.843-.557-.843-.908 0-.445.397-.732 1.018-.732.723 0 1.369.303 1.369.303l.51-1.56s-.47-.367-1.847-.367c-1.918 0-3.247 1.099-3.247 2.643 0 .875.62 1.543 1.449 2.02.668.382.907.653.907 1.05 0 .415-.334.749-.955.749-.925 0-1.798-.478-1.798-.478L46 20.503s.807.541 2.164.541c1.974 0 3.39-.97 3.39-2.721 0-.939-.716-1.607-1.576-2.1zM57.84 12.944c-.97 0-1.734.462-2.323 1.162l-.032-.016.843-4.409h-2.196L52 20.901h2.196l.732-3.835c.286-1.448 1.034-2.34 1.735-2.34.493 0 .684.335.684.813 0 .302-.032.668-.095.97l-.828 4.393h2.197l.86-4.536a8.2 8.2 0 0 0 .159-1.432c-.001-1.242-.654-1.99-1.8-1.99zM64.604 12.944c-2.642 0-4.392 2.387-4.392 5.045 0 1.703 1.05 3.071 3.023 3.071 2.594 0 4.345-2.323 4.345-5.045 0-1.575-.923-3.071-2.976-3.071zm-1.082 6.43c-.748 0-1.066-.637-1.066-1.433 0-1.257.652-3.31 1.846-3.31.78 0 1.034.669 1.034 1.321 0 1.353-.652 3.422-1.814 3.422zM73.198 12.944c-1.483 0-2.324 1.305-2.324 1.305h-.031l.127-1.178h-1.942a46.85 46.85 0 0 1-.445 2.913l-1.528 8.036h2.196l.605-3.246h.048s.45.286 1.289.286c2.578 0 4.265-2.641 4.265-5.315 0-1.48-.653-2.801-2.26-2.801zm-2.101 6.461c-.57 0-.907-.318-.907-.318l.366-2.053c.255-1.368.97-2.276 1.734-2.276.669 0 .876.62.876 1.21 0 1.416-.843 3.437-2.07 3.437zM78.593 9.793c-.7 0-1.257.557-1.257 1.273 0 .652.414 1.098 1.034 1.098h.032c.685 0 1.273-.462 1.29-1.273 0-.636-.43-1.098-1.099-1.098zM75.522 20.901h2.196l1.496-7.782h-2.212l-1.48 7.782zM84.8 13.103h-1.528l.08-.366c.127-.748.573-1.416 1.304-1.416.391 0 .7.111.7.111l.43-1.719s-.382-.19-1.193-.19c-.78 0-1.56.222-2.149.732-.748.636-1.098 1.559-1.273 2.482l-.063.366h-1.02l-.317 1.656h1.018l-1.161 6.143h2.196l1.162-6.143h1.512l.302-1.656zM90.084 13.12s-1.373 3.458-1.99 5.347h-.032c-.042-.609-.54-5.348-.54-5.348h-2.309l1.322 7.146c.032.159.016.254-.048.366-.255.493-.685.97-1.194 1.32-.414.303-.875.494-1.24.621l.604 1.863c.445-.096 1.368-.462 2.148-1.194 1.003-.939 1.926-2.387 2.88-4.36l2.69-5.762h-2.291z" fill="#000"/><path d="M56.986 31.983c0-1.25-.792-1.692-2.106-2.007-.972-.234-1.206-.468-1.206-.963 0-.477.342-.783.981-.783.594 0 .954.333 1.062.882l1.134-.153c-.144-.954-.873-1.647-2.187-1.647-1.305 0-2.142.738-2.142 1.791 0 1.125.657 1.63 2.016 1.944.936.225 1.251.46 1.251 1.044 0 .54-.432.91-1.071.91-.837 0-1.134-.514-1.224-1.108l-1.17.153c.144.981.873 1.872 2.385 1.872 1.395 0 2.277-.819 2.277-1.935zM58.53 33.828h3.987v-.963h-2.772v-1.89h2.125v-.909h-2.124v-1.71h2.627v-.963h-3.842v6.435zM68.924 31.821l-1.143-.17c-.108.656-.558 1.277-1.368 1.277-.945 0-1.485-.702-1.485-1.98v-.693c0-1.269.576-1.98 1.476-1.98.738 0 1.143.495 1.242 1.206l1.224-.162c-.153-1.143-.98-2.007-2.457-2.007-1.575 0-2.754 1.143-2.754 2.961v.675c0 1.836 1.008 2.97 2.754 2.97 1.62 0 2.358-1.17 2.511-2.097zM73.937 27.393v4.023c0 1.125-.405 1.521-1.215 1.521-.846 0-1.179-.44-1.179-1.467v-4.077H70.31v4.15c0 1.565.882 2.375 2.394 2.375 1.593 0 2.457-.846 2.457-2.43v-4.095h-1.224zM76.931 33.828h1.215v-2.637h.82l1.457 2.637h1.314l-1.593-2.826c.73-.207 1.27-.684 1.27-1.638v-.135c0-1.269-.883-1.836-2.296-1.836h-2.187v6.435zm1.215-3.483v-2.007h.963c.693 0 1.098.243 1.098.918v.126c0 .657-.378.963-1.107.963h-.954zM83.085 33.828h3.987v-.963H84.3v-1.89h2.124v-.909H84.3v-1.71h2.628v-.963h-3.843v6.435z" fill="#000" fill-opacity=".6"/><path d="M29.268 14.8a.242.242 0 0 0-.219-.203c-.09-.008-1.865-.035-1.865-.035s-1.484-1.441-1.63-1.588c-.147-.146-.434-.102-.545-.069l-.746.231a5.232 5.232 0 0 0-.357-.877c-.528-1.008-1.302-1.541-2.237-1.543h-.003c-.065 0-.13.007-.195.012a2.807 2.807 0 0 0-.084-.098c-.407-.435-.93-.648-1.555-.629-1.208.035-2.41.907-3.386 2.456-.686 1.09-1.208 2.46-1.356 3.52l-2.378.736c-.7.22-.722.241-.813.901-.068.499-1.899 14.66-1.899 14.66l15.347 2.654L32 33.275s-2.714-18.35-2.731-18.475zm-5.773-1.426l-1.19.369c-.01-.612-.082-1.462-.367-2.197.916.173 1.367 1.21 1.557 1.828zm-1.994.618l-2.562.793c.247-.948.717-1.892 1.294-2.511.214-.23.514-.487.87-.634.334.697.406 1.684.398 2.352zm-1.645-3.187c.283-.006.522.056.726.19-.326.17-.642.413-.938.73-.767.823-1.355 2.1-1.589 3.333l-2.105.652c.416-1.94 2.042-4.851 3.906-4.905z" fill="#95BF47"/><path d="M29.05 14.598a195.77 195.77 0 0 0-1.865-.035s-1.484-1.441-1.63-1.588a.364.364 0 0 0-.207-.095l.001 22.047L32 33.276S29.286 14.927 29.269 14.8a.242.242 0 0 0-.219-.204z" fill="#5E8E3E"/><path d="M21.66 18.017l-.772 2.89s-.861-.392-1.883-.327c-1.498.095-1.514 1.04-1.498 1.276.081 1.293 3.482 1.575 3.673 4.603.15 2.382-1.264 4.011-3.3 4.14-2.445.154-3.791-1.288-3.791-1.288l.518-2.203s1.354 1.022 2.439.953c.708-.045.961-.62.936-1.028-.107-1.686-2.876-1.587-3.05-4.357-.148-2.331 1.383-4.694 4.761-4.907 1.302-.084 1.968.248 1.968.248z" fill="#fff"/><path fill="#D2D0CC" d="M39 8h1v28h-1z"/></svg>