<svg width="200" viewBox="0 0 579 579" fill="none" xmlns="http://www.w3.org/2000/svg">
<path d="M425.234 222.134C462.549 296.749 432.312 387.487 357.697 424.803C283.081 462.119 192.343 431.881 155.028 357.266C117.712 282.651 147.949 191.913 222.564 154.597C297.18 117.281 387.918 147.519 425.234 222.134Z" fill="#DDB33E"/>
<path fill-rule="evenodd" clip-rule="evenodd" d="M538.72 283.741C539.571 285.624 540.007 287.668 540 289.734C540.018 291.758 539.599 293.761 538.773 295.609C537.946 297.456 536.732 299.103 535.211 300.439L500.704 330.72L521.268 371.777C522.203 373.609 522.726 375.624 522.799 377.68C522.872 379.737 522.493 381.784 521.69 383.678C520.948 385.616 519.786 387.365 518.289 388.802C516.791 390.238 514.995 391.326 513.028 391.988L468.028 407.763L471.056 455.368C471.291 457.493 471.039 459.644 470.319 461.657C469.599 463.67 468.43 465.493 466.901 466.988C465.434 468.432 463.678 469.548 461.748 470.265C459.818 470.981 457.758 471.28 455.704 471.143L409.859 468.115L395.775 511.636C395.137 513.611 394.082 515.426 392.683 516.959C391.283 518.492 389.571 519.706 387.662 520.521C385.753 521.335 383.691 521.73 381.616 521.68C379.541 521.629 377.501 521.134 375.634 520.227L332.676 499.1L301.338 534.946C299.947 536.463 298.262 537.683 296.386 538.53C294.51 539.377 292.481 539.835 290.423 539.875C288.338 539.848 286.283 539.382 284.39 538.509C282.497 537.635 280.81 536.373 279.437 534.805L249.155 500.439L208.099 520.861C206.239 521.783 204.209 522.309 202.137 522.406C200.064 522.503 197.993 522.169 196.056 521.424C194.162 520.637 192.455 519.458 191.047 517.966C189.639 516.473 188.563 514.7 187.887 512.762L172.042 467.551L124.437 470.72C122.384 470.844 120.328 470.539 118.4 469.823C116.472 469.108 114.714 467.998 113.239 466.565C111.817 465.083 110.714 463.324 109.999 461.398C109.285 459.472 108.973 457.42 109.085 455.368L111.831 409.593L68.169 395.086C66.3268 394.346 64.6534 393.241 63.2495 391.837C61.8456 390.433 60.7403 388.76 60 386.917C59.1638 385.02 58.732 382.97 58.732 380.896C58.732 378.823 59.1638 376.772 60 374.875L80.7746 332.129L44.9296 300.439C43.4115 299.093 42.1894 297.447 41.3408 295.604C40.4922 293.761 40.0357 291.763 40 289.734C40.0236 287.673 40.4738 285.639 41.3222 283.761C42.1706 281.882 43.3989 280.199 44.9296 278.819L79.4366 248.537L59.0141 207.481C58.0562 205.659 57.5093 203.649 57.4119 201.593C57.3146 199.536 57.6692 197.484 58.4507 195.579C59.1932 193.642 60.3547 191.892 61.8521 190.456C63.3495 189.019 65.1459 187.931 67.1127 187.27L112.113 171.847L109.085 124.382C108.937 122.268 109.237 120.147 109.966 118.157C110.694 116.167 111.833 114.353 113.31 112.833C114.758 111.362 116.511 110.228 118.446 109.51C120.381 108.792 122.45 108.508 124.507 108.678L170.282 111.706L184.789 68.0443C185.435 66.0915 186.502 64.3041 187.913 62.8076C189.324 61.3112 191.046 60.142 192.958 59.3823C194.831 58.5494 196.858 58.1191 198.908 58.1191C200.959 58.1191 202.986 58.5494 204.859 59.3823L247.746 80.5091L279.437 44.664C280.826 43.1912 282.501 42.0178 284.36 41.2157C286.219 40.4137 288.222 40 290.246 40C292.271 40 294.274 40.4137 296.133 41.2157C297.992 42.0178 299.667 43.1912 301.056 44.664L331.197 79.171L372.253 58.6076C374.104 57.6508 376.145 57.1166 378.227 57.0436C380.31 56.9705 382.382 57.3604 384.296 58.1851C386.18 58.9383 387.879 60.0896 389.277 61.5603C390.674 63.031 391.738 64.7864 392.394 66.7062L407.887 111.847L455.493 108.678C457.607 108.439 459.748 108.682 461.755 109.389C463.762 110.096 465.582 111.248 467.08 112.759C468.578 114.27 469.713 116.101 470.402 118.114C471.091 120.127 471.314 122.27 471.056 124.382L468.169 169.875L511.831 184.382C513.798 185.066 515.605 186.143 517.142 187.547C518.68 188.952 519.916 190.654 520.775 192.551C521.599 194.465 521.989 196.537 521.916 198.62C521.843 200.702 521.309 202.743 520.352 204.594L499.225 247.34L535.07 278.819C536.625 280.18 537.87 281.858 538.72 283.741ZM188.065 445.637C218.175 465.756 253.575 476.495 289.789 476.495C338.349 476.495 384.921 457.204 419.259 422.867C453.597 388.529 472.887 341.957 472.887 293.396C472.887 257.183 462.149 221.783 442.03 191.672C421.91 161.562 393.314 138.094 359.857 124.235C326.401 110.377 289.586 106.751 254.068 113.816C218.55 120.881 185.925 138.319 160.318 163.926C134.712 189.533 117.273 222.158 110.208 257.676C103.143 293.193 106.769 330.008 120.628 363.465C134.486 396.922 157.954 425.518 188.065 445.637Z" fill="#DDB33E"/>
<path d="M289.789 138.466C259.146 138.466 229.192 147.553 203.714 164.576C178.236 181.6 158.379 205.797 146.652 234.107C134.926 262.416 131.858 293.567 137.836 323.621C143.814 353.674 158.569 381.28 180.237 402.947C201.904 424.615 229.51 439.37 259.563 445.348C289.617 451.326 320.768 448.258 349.077 436.532C377.387 424.806 401.584 404.948 418.608 379.47C435.632 353.992 444.718 324.038 444.718 293.396C444.718 252.306 428.395 212.899 399.34 183.844C370.285 154.789 330.878 138.466 289.789 138.466ZM289.789 418.114C264.521 418.058 239.836 410.515 218.854 396.436C197.872 382.358 181.533 362.376 171.902 339.016C162.271 315.655 159.78 289.964 164.744 265.189C169.707 240.413 181.903 217.665 199.79 199.818C217.676 181.97 240.451 169.825 265.238 164.916C290.024 160.007 315.709 162.554 339.048 172.237C362.388 181.919 382.333 198.302 396.365 219.315C410.398 240.328 417.887 265.029 417.887 290.297C417.85 324.185 404.371 356.674 380.409 380.636C356.447 404.598 323.958 418.077 290.07 418.114H289.789Z" fill="#FAAF3A"/>
<path d="M289.789 472.973C254.281 472.931 219.582 462.364 190.078 442.606C160.575 422.848 137.591 394.788 124.031 361.971C110.472 329.153 106.946 293.053 113.899 258.232C120.852 223.412 137.971 191.434 163.094 166.341C188.217 141.247 220.215 124.165 255.044 117.253C289.873 110.341 325.969 113.91 358.77 127.508C391.571 141.106 419.605 164.123 439.328 193.65C459.051 223.176 469.577 257.887 469.577 293.396C469.521 341.042 450.555 386.718 416.844 420.389C383.133 454.06 337.435 472.973 289.789 472.973V472.973ZM289.789 187.128C269.396 187.184 249.477 193.282 232.548 204.652C215.619 216.022 202.439 232.154 194.674 251.011C186.909 269.867 184.906 290.602 188.918 310.596C192.931 330.591 202.779 348.947 217.218 363.347C231.658 377.748 250.041 387.546 270.046 391.504C290.052 395.462 310.781 393.402 329.616 385.585C348.451 377.769 364.548 364.545 375.872 347.585C387.195 330.625 393.239 310.69 393.239 290.297C393.202 262.946 382.32 236.726 362.981 217.387C343.641 198.047 317.421 187.165 290.07 187.128H289.789Z" fill="#191719"/>
<path d="M247.887 246.283L229.648 244.1C229.626 237.627 231.868 231.349 235.986 226.354C238.667 223.8 241.845 221.826 245.322 220.553C248.799 219.281 252.501 218.739 256.197 218.959C259.938 218.674 263.697 219.206 267.211 220.52C270.726 221.833 273.912 223.896 276.549 226.565C280.815 231.633 283.026 238.116 282.747 244.734C282.767 250.475 281.129 256.1 278.028 260.931C281.322 265.726 282.977 271.457 282.747 277.269C282.797 283.907 280.587 290.365 276.479 295.579C273.871 298.218 270.694 300.225 267.19 301.446C263.687 302.666 259.951 303.069 256.268 302.621C252.452 302.945 248.611 302.488 244.979 301.277C241.346 300.066 237.999 298.127 235.141 295.579C231.118 290.681 228.949 284.523 229.014 278.185L246.69 276.072C246.69 281.213 250 283.819 256.479 283.959C262.958 284.1 265 281.847 264.789 277.41C264.577 272.974 261.972 270.368 256.268 270.368H247.535L247.887 251.143H256.338C262.042 251.143 264.859 249.03 264.648 244.593C264.437 240.157 261.831 237.551 256.127 237.551C250.423 237.551 247.887 240.579 247.887 246.283Z" fill="#191719"/>
<path d="M341.127 277.831C341.409 284.653 339.235 291.35 335 296.705C332.395 299.348 329.218 301.358 325.714 302.579C322.21 303.8 318.472 304.199 314.789 303.747C311.038 304.024 307.271 303.488 303.746 302.175C300.222 300.862 297.022 298.804 294.366 296.141C290.059 290.868 287.807 284.214 288.028 277.409L288.38 244.099C288.083 237.297 290.259 230.617 294.507 225.296C297.111 222.653 300.288 220.643 303.793 219.422C307.297 218.201 311.035 217.801 314.718 218.254C318.47 217.967 322.239 218.499 325.765 219.812C329.291 221.126 332.49 223.189 335.141 225.859C339.5 231.103 341.758 237.778 341.479 244.592L341.127 277.831ZM306.267 277.831C306.267 282.831 309.155 285.367 314.859 285.437C320.563 285.507 323.45 283.043 323.45 278.395V244.803C323.45 239.803 320.563 237.268 314.859 237.198C309.155 237.127 306.267 239.592 306.267 244.24V277.831Z" fill="#191719"/>
<path d="M249.225 318.677C250.954 318.539 252.692 318.775 254.321 319.371C255.949 319.966 257.43 320.907 258.662 322.127C260.615 324.589 261.659 327.648 261.62 330.789V344.874C261.752 348.027 260.753 351.124 258.803 353.606C257.612 354.836 256.154 355.774 254.542 356.348C252.93 356.922 251.207 357.117 249.507 356.916H237.183V318.888L249.225 318.677ZM245.282 327.339V348.043H249.225C251.831 348.043 253.169 346.987 253.169 344.733V330.649C253.169 328.325 251.831 327.127 249.225 327.127L245.282 327.339Z" fill="#191719"/>
<path d="M273.169 351.493L272.394 356.775H263.662L272.394 319.029H283.169L291.62 356.352L282.465 356.775L281.479 351.423L273.169 351.493ZM279.437 343.536L276.831 330.014L274.366 343.465L279.437 343.536Z" fill="#191719"/>
<path d="M304.577 343.467V356.636H296.338V341.988L287.465 318.889H296.62L300.563 330.65L304.648 318.889H313.873L304.577 343.467Z" fill="#191719"/>
<path d="M316.338 346.212C319.367 347.9 322.689 349 326.127 349.452C328.028 349.452 329.014 348.818 329.014 347.339C329.014 345.86 326.408 343.677 321.197 340.297C319.062 339.327 317.217 337.817 315.846 335.914C314.475 334.012 313.625 331.784 313.38 329.452C313.232 327.804 313.481 326.145 314.106 324.614C314.731 323.082 315.713 321.723 316.972 320.649C319.638 318.813 322.82 317.876 326.056 317.973C330.157 318.054 334.145 319.326 337.535 321.635L332.887 328.677C330.545 327.053 327.779 326.147 324.93 326.072C322.887 326.072 321.901 326.917 321.901 328.184C321.901 329.452 324.437 331.705 329.507 334.804C331.605 335.769 333.416 337.263 334.762 339.14C336.108 341.017 336.942 343.211 337.183 345.508C337.4 348.791 336.424 352.042 334.437 354.663C333.349 355.866 331.988 356.789 330.467 357.353C328.947 357.917 327.313 358.106 325.704 357.903C321.364 357.552 317.144 356.305 313.31 354.241L316.338 346.212Z" fill="#191719"/>
<path d="M144.366 288.818L159.437 290.86L158.732 298.677L124.507 293.818L125.634 286.071L143.803 282.55L127.042 274.029L128.239 266.564L162.535 271.142L161.056 278.818L145.986 276.705L155.986 281.142L155.141 287.268L144.366 288.818Z" fill="white"/>
<path d="M166.76 230.79C169.406 231.874 171.595 233.84 172.958 236.354C173.53 237.815 173.757 239.388 173.623 240.951C173.489 242.514 172.996 244.026 172.183 245.368C171.671 246.868 170.829 248.235 169.72 249.368C168.612 250.501 167.263 251.372 165.775 251.917C163.027 252.685 160.092 252.409 157.535 251.142L144.648 245.227C141.984 244.135 139.791 242.141 138.451 239.593C137.868 238.137 137.629 236.567 137.751 235.004C137.873 233.441 138.353 231.927 139.155 230.579C139.693 229.093 140.543 227.739 141.649 226.609C142.754 225.479 144.089 224.6 145.563 224.03C148.36 223.278 151.333 223.553 153.944 224.804L166.76 230.79ZM160.634 244.1C162.606 245.016 164.014 244.1 165.07 242.128C166.127 240.156 165.634 238.396 163.732 237.551L150.775 231.847C148.873 231.001 147.394 231.847 146.408 233.889C145.422 235.931 145.845 237.551 147.676 238.396L160.634 244.1Z" fill="white"/>
<path d="M178.31 204.804L189.507 215.086L184.437 221.072L159.225 197.551L164.507 191.776L181.479 197.833L169.296 186.565L174.507 181.072L199.789 204.241L194.225 210.509L178.31 204.804Z" fill="white"/>
<path d="M213.31 154.382L216.972 161.001L205.986 167.058L208.944 172.199L217.887 167.339L221.549 173.889L212.676 178.748L215.493 183.677L226.479 177.691L230.141 184.241L212.535 194.382L195.634 164.241L213.31 154.382Z" fill="white"/>
<path d="M255.07 162.621L258.31 174.241L251.268 176.283L247.676 163.325L233.873 145.508L241.972 143.255L248.521 152.551L249.155 141.213L257.253 138.466L255.07 162.621Z" fill="white"/>
<path d="M361.056 150.085L370.07 157.127C371.349 157.895 372.441 158.937 373.268 160.178C374.094 161.42 374.635 162.829 374.851 164.305C375.066 165.78 374.951 167.285 374.514 168.711C374.077 170.137 373.329 171.448 372.324 172.55C370.906 174.515 368.913 175.992 366.62 176.775C366.571 179.349 365.652 181.831 364.014 183.817C362.187 185.936 359.666 187.334 356.901 187.761C355.354 188.003 353.772 187.88 352.281 187.403C350.789 186.927 349.43 186.109 348.31 185.015L339.366 177.972L361.056 150.085ZM354.014 171.916L350.493 176.493L353.31 178.677C355.211 180.155 356.69 180.155 357.817 178.677C358.944 177.198 358.662 175.578 356.69 174.099L354.014 171.916ZM358.803 165.578L361.69 167.761C363.521 169.24 365.07 169.24 366.127 167.761C367.183 166.282 366.972 164.662 365.07 163.254L362.324 161.071L358.803 165.578Z" fill="white"/>
<path d="M378.873 205.79L374.577 208.185L369.648 201.917L401.408 186.283L407.606 193.959L386.056 221.565L380.423 215.368L383.662 211.494L378.873 205.79ZM388.31 205.79L396.408 196.072L385.423 202.128L388.31 205.79Z" fill="white"/>
<path d="M412.746 251.987C410.197 253.183 407.318 253.481 404.577 252.832C403.096 252.301 401.759 251.433 400.671 250.297C399.583 249.16 398.775 247.786 398.31 246.283C397.532 244.899 397.072 243.36 396.962 241.777C396.852 240.193 397.096 238.605 397.676 237.128C398.939 234.531 401.123 232.498 403.803 231.424L416.761 225.719C419.332 224.432 422.28 224.107 425.07 224.804C426.552 225.334 427.889 226.202 428.977 227.339C430.065 228.476 430.873 229.85 431.338 231.353C432.116 232.737 432.576 234.276 432.686 235.859C432.795 237.443 432.551 239.031 431.972 240.508C430.744 242.93 428.734 244.865 426.268 246.001L422.253 239.381H422.676C424.577 238.536 425.07 236.987 424.084 234.804C423.099 232.621 421.69 231.916 419.859 232.762L406.972 238.607C406.537 238.778 406.147 239.046 405.831 239.389C405.514 239.733 405.28 240.143 405.144 240.59C405.009 241.037 404.976 241.509 405.049 241.97C405.121 242.432 405.297 242.871 405.563 243.255C406.479 245.508 407.958 246.142 409.789 245.297H410.493L412.746 251.987Z" fill="white"/>
<path d="M415.704 278.677L410.563 279.592L408.873 272.268L442.887 266.423L444.155 273.888L433.169 275.86L445.352 279.874L446.972 288.184L431.62 283.677L413.239 294.17L411.479 286.353L421.408 280.508L415.704 278.677Z" fill="white"/>
<path d="M187.113 400.719C185.682 402.167 183.787 403.065 181.761 403.255C180.643 403.236 179.544 402.967 178.545 402.468C177.546 401.968 176.671 401.25 175.986 400.367C175.158 399.592 174.499 398.653 174.051 397.611C173.603 396.569 173.374 395.445 173.38 394.311C173.655 392.285 174.626 390.417 176.127 389.029L183.521 381.987C184.99 380.541 186.897 379.625 188.944 379.381C190.073 379.375 191.187 379.641 192.192 380.156C193.197 380.67 194.063 381.419 194.718 382.339C195.544 383.101 196.202 384.027 196.651 385.058C197.1 386.088 197.329 387.201 197.324 388.325C197.162 390.102 196.39 391.769 195.141 393.043L190.845 389.522C191.69 388.748 191.479 387.691 190.282 386.424C189.085 385.156 188.028 385.086 186.972 386.424L179.93 393.466C179.666 393.67 179.453 393.931 179.307 394.231C179.16 394.53 179.084 394.858 179.084 395.191C179.084 395.524 179.16 395.853 179.307 396.152C179.453 396.451 179.666 396.713 179.93 396.917C181.056 398.184 182.183 398.325 183.239 396.917L184.93 395.226L182.958 393.043L186.62 389.1L192.606 395.367L187.113 400.719Z" fill="white"/>
<path d="M204.225 416.847C205.634 417.833 206.761 417.692 207.606 416.495L217.324 401.847L221.901 404.804L212.042 419.452C210.952 421.208 209.283 422.528 207.324 423.185C206.226 423.436 205.084 423.419 203.993 423.138C202.903 422.856 201.895 422.316 201.056 421.565C200.077 421.013 199.23 420.255 198.573 419.343C197.917 418.431 197.466 417.387 197.254 416.283C197.022 414.232 197.575 412.169 198.803 410.509L209.014 395.861L213.451 398.959L203.38 413.537C203.168 413.793 203.019 414.096 202.946 414.421C202.873 414.746 202.878 415.084 202.961 415.407C203.043 415.729 203.201 416.028 203.42 416.278C203.64 416.529 203.916 416.723 204.225 416.847Z" fill="white"/>
<path d="M229.437 432.269L227.606 435.298L222.324 433.114L236.409 411.988L242.958 414.593L239.155 439.312L233.521 437.41L234.155 433.889L229.437 432.269ZM235.352 429.03L237.183 420.157L232.465 427.762L235.352 429.03Z" fill="white"/>
<path d="M259.155 420.156L267.042 421.494C268.17 421.615 269.259 421.98 270.232 422.564C271.204 423.147 272.039 423.936 272.676 424.874C273.682 426.673 273.983 428.781 273.521 430.79C273.188 432.808 272.168 434.649 270.634 436.001C270.011 436.512 269.293 436.895 268.521 437.128L270.211 447.269L264.507 446.283L262.817 436.776H261.761L260.211 445.438L254.648 444.733L259.155 420.156ZM263.592 426.635L262.817 431.001L265.282 431.494C266.972 431.494 267.958 431.494 268.169 429.804C268.38 428.114 267.747 427.41 266.056 427.128L263.592 426.635Z" fill="white"/>
<path d="M292.113 445.438L291.479 448.889H285.845L291.338 424.241H298.38L304.014 448.326H298.099L297.394 444.805L292.113 445.438ZM296.338 440.227L294.578 431.354L293.028 440.157L296.338 440.227Z" fill="white"/>
<path d="M323.31 434.734L325.986 445.227L320.634 446.847L314.648 422.903L320.07 421.565L327.887 431.776L325 420.157L330.282 418.889L336.338 442.692L330.563 444.171L323.31 434.734Z" fill="white"/>
<path d="M361.197 431.917L356.408 434.734L347.394 417.41L343.099 419.663L340.704 414.804L354.084 407.762L356.901 413.114L352.606 415.297L361.197 431.917Z" fill="white"/>
<path d="M374.859 392.763L378.239 396.917L371.197 402.551L373.873 405.791L379.578 401.284L382.958 405.439L377.324 409.946L379.93 413.044L386.972 407.481L390.352 411.636L379.225 420.932L363.944 401.847L374.859 392.763Z" fill="white"/>
<path d="M392.606 373.677L396.69 377.198L390.775 384.24L394.014 386.986L398.803 381.564L402.887 385.085L398.169 390.508L401.197 393.113L407.113 386.071L411.197 389.592L401.831 400.648L383.169 384.522L392.606 373.677Z" fill="white"/>
</svg>
