<svg data-name="secure site" xmlns="http://www.w3.org/2000/svg" xmlns:xlink="http://www.w3.org/1999/xlink" viewBox="0 0 1470.79 882.45" width="200"> <defs> <style>.cls-1{fill: none;}.cls-2{stroke: #fff; stroke-miterlimit: 10; stroke-width: 6.85px;}.cls-3{fill: #fff;}.cls-4{clip-path: url(#clip-path);}.cls-5{fill: #fefefe;}.cls-6{fill: #fdfdfe;}.cls-7{fill: #fdfdfd;}.cls-8{fill: #fafafb;}.cls-9{fill: #fbfbfb;}.cls-10{fill: #f9f9fa;}.cls-11{fill: #f7f7f8;}.cls-12{fill: #fafafa;}.cls-13{fill: #f9fafa;}.cls-14{isolation: isolate; font-size: 69.73px; font-family: BoldGameFont7, "Bold Game Font 7";}</style> <clipPath> <rect class="cls-1" x="403.98" y="320.33" width="638.04" height="113.32"/> </clipPath> </defs> <title>stripe</title> <path d="M1393.54,882.45H77.25C34.55,882.45,0,853,0,816.58V65.87C0,29.46,34.55,0,77.25,0H1393.54c42.61,0,77.25,29.46,77.25,65.87V816.58C1470.69,853,1436.15,882.45,1393.54,882.45Z"/> <path class="cls-2" d="M1098.65,469.49H357.34a27.52,27.52,0,0,1-27.41-27.41V312a27.52,27.52,0,0,1,27.41-27.41h741.31A27.52,27.52,0,0,1,1126.06,312V442.08A27.52,27.52,0,0,1,1098.65,469.49Z"/> <path class="cls-1" d="M729.79,207.83a123.27,123.27,0,0,0-114.46,77.56H844.26A123.28,123.28,0,0,0,729.79,207.83Z"/> <path class="cls-1" d="M718.5,564.24a9.06,9.06,0,0,0-.08,1.47V634a15.5,15.5,0,0,0,15.47,15.46h0A15.5,15.5,0,0,0,749.35,634V565.71a10.07,10.07,0,0,0-.08-1.55,39.34,39.34,0,1,0-30.77.08Z"/> <path class="cls-3" d="M449.64,694.58A27.51,27.51,0,0,0,477.05,722H990.64a27.51,27.51,0,0,0,27.41-27.41V470.31H449.64Zm284.16-206a39.34,39.34,0,0,1,15.47,75.52,9.56,9.56,0,0,1,.08,1.55V634a15.5,15.5,0,0,1-15.46,15.47h0A15.51,15.51,0,0,1,718.42,634V565.63a9.06,9.06,0,0,1,.08-1.47,39.35,39.35,0,0,1,15.3-75.6Z"/> <path class="cls-3" d="M729.79,207.83a123.28,123.28,0,0,1,114.47,77.56h98.52C921.58,188.44,835.34,115.94,732,115.94S542.42,188.52,521.23,285.39h94A123.57,123.57,0,0,1,729.79,207.83Z"/> <g class="cls-5"> <path class="cls-6" d="M955.7,347c-1.31.57-2.78,2.86-4.26.74-3.68-5.24-8.83-1.4-13.25-2.46-3.36-.82-4.34,1.15-4.34,4.34.08,27.9.08,55.72.08,84.36,6.39-1.48,14.08-.9,17.35-4.42,4.5-4.75.41-13,2.05-19.64,17.26,5.73,28.55,2.54,34.69-10.8,6.05-13,6.38-26.51.57-39.68-6.05-14-18.9-18.58-32.89-12.44m15,44.1c-2.94,4.58-6.95,6.3-12.35,4.91-5.57-1.39-5.57-5.56-5.32-10,.16-2.54,0-5.08,0-7.61h-.08c0-2.54.16-5.07,0-7.61-.33-4.26.16-7.86,5.07-9.33s8.92-.16,12,3.85c4.66,6.05,5,19.06.65,25.77"/> </g> <g class="cls-5"> <path class="cls-7" d="M1021.32,385.81c5.15-.08,10.23,0,15.38,0,18.33,0,19.72-1.8,15.14-19.71a44.59,44.59,0,0,0-2.7-7.12,26.08,26.08,0,0,0-37.64-11.05c-13,7.94-18.57,28.8-12.35,46.15,5.07,14.15,18.57,21.44,35.1,19,15.38-2.29,15.79-2.78,14.32-19.47A43.21,43.21,0,0,1,1028,397c-3.85-.24-7.28-1.31-9.74-4.58-1.14-1.55-2.7-3.35-1.63-5.4,1-1.88,3-1.23,4.66-1.23m4.17-26.34c5.57-.08,9.49,3.68,9.33,8.92-.16,6.13-5.89,1.47-8.84,3.51-2.78-2.7-9.49,3.52-9.57-4.17-.08-5,4-8.18,9.08-8.26"/> </g> <g class="cls-5"> <path class="cls-7" d="M809.81,373c-3.68-1.47-7.53-2.62-11.21-4.26-2.13-.9-4-2.53-3.19-5.31.66-2.3,2.7-2.7,4.75-2.87,4.33-.24,8.42.82,12.68,1.56,2.37.41,6.71,5.15,7.2-.33.41-4.91,4.25-12.36-2.87-15.14-10.3-4.09-21.27-4.42-31.5,1.07-6.87,3.76-9.81,10-9.9,17.75s3.85,12.93,10.64,16.12c4.42,2.05,8.92,3.68,13.42,5.56,2.37,1.07,4.74,2.54,4.34,5.65-.58,3.76-3.69,3.76-6.63,3.93-7.28.41-13.75-3-20.54-5.08-1.88,18.58-.33,20.54,17.43,21.6a44.27,44.27,0,0,0,11.86-1.14c10.72-2.29,17.1-9.33,17.76-19.15.65-9.08-4.17-15.87-14.24-20"/> </g> <g class="cls-5"> <path class="cls-8" d="M861.69,399.64c.41-2.21-.33-3.93-3.28-3.43-9.9,1.63-11.7-4.18-11.37-12.2a107.58,107.58,0,0,0-.08-14.48c-.66-6.22,1.14-9.33,7.85-8.18,7.78,1.31,6.88-3.93,7-8.92.25-5.15-.65-8.34-6.79-7.28s-8.84-.82-8.27-7.61c.25-2.46,3.2-9.08-3.35-7.61-5.4,1.23-15.14-2.62-15.06,8.84.09,8.83,0,17.67,0,26.51h-.08c0,9.41-.41,18.82.08,28.23a21.07,21.07,0,0,0,30.2,18.41c5.89-2.79,2.29-8.19,3.11-12.28"/> </g> <g class="cls-5"> <path class="cls-8" d="M891.06,345.89c-2.54,1.14-3.52,2.78-7.28.16-7.78-5.32-15.3-.08-15.3,9.33v44.34c0,12.69,0,12.44,12.76,12.36,4.75,0,6.47-1.23,6.3-6.14-.33-11.37.17-22.74-.16-34.12-.17-6.13,2.62-8.75,8.26-9.65,2.13-.33,5.81,1.88,6-2.46.17-4.74,1.8-10.14-1-14.07-2-2.62-6.46-1.23-9.57.25"/> </g> <g class="cls-5"> <path class="cls-8" d="M926.08,379.51c0-9.65-.16-19.39.08-29,.08-4.09-1.14-5.73-5.32-5.32a50.38,50.38,0,0,1-8.51,0c-3.92-.33-5.56.82-5.48,5.15.17,18.82.17,37.56,0,56.38,0,4.09,1.23,5.73,5.32,5.32a39.52,39.52,0,0,1,7.69,0c4.75.49,6.55-1.07,6.3-6.06-.33-8.83-.08-17.67-.08-26.43"/> </g> <g class="cls-5"> <path class="cls-9" d="M527.12,366.59c-3.19-.74-5.32.57-6.14,4.17-1.06,4.5-2.7,8.84-4.74,15.46-2.13-6.71-3.77-11.21-5-15.79-.65-2.62-1.8-4-4.58-4s-4,1.07-4.74,3.77c-1.15,4.58-2.87,9.08-5.16,16.2-2-7-3.6-11.46-4.74-16.12-.9-3.77-3.6-4.5-6.47-3.6-3.93,1.14-.9,3.76-.41,5.48,2.13,6.79,4.67,13.42,6.79,20.21.9,2.78,2.05,4.34,5.24,4.42,3.76.08,4-2.54,4.75-4.91,1.47-4.42,2.7-8.92,4.58-15.22,2,6.46,3.27,11.13,4.74,15.71.66,2.05,1,4.42,4.26,4.42,3,0,4.66-1.07,5.56-4,2.13-6.79,4.75-13.42,6.71-20.29.66-1.72,4.09-4.75-.65-5.89"/> </g> <g class="cls-5"> <path class="cls-9" d="M680.37,367.81c0-3.6.08-6.13,0-8.67-.08-2.7.9-5.89-3.85-5.89-4.41,0-4.25,2.7-4.17,5.73,0,8,.33,16-.08,24-.41,8.18-1.47,15.14,11.13,14,6.22-.57,12.11.25,15.54-5.73,3.85-6.62,3.85-13.82-.65-20.21-4.17-5.89-10.31-6.38-17.92-3.19m5.81,22.91c-6.06,0-6.38-4.41-5.81-8.83-.25-4.67-.66-9.41,5.73-9.25,6,.08,7.61,4.5,7.52,9.41,0,4.66-2.12,8.67-7.44,8.67"/> </g> <g class="cls-5"> <path class="cls-10" d="M644.53,353.25c-3.44-.16-3.52,1.88-3.52,4.34.08,3.11,0,6.21,0,9.41-11.86-2.3-18.08.24-20.29,8.42-2,7.2-1.64,14.32,4.91,19.39,6.87,5.24,14.65.33,21.93,1.4,1.23.16,1.39-1.56,1.39-2.7V356.85c.08-3-1.88-3.44-4.42-3.6M635,390.72c-5.24-.16-7.37-4.17-7.28-8.83,0-4.91,1.8-9.17,7.77-9.17,6.54,0,5.73,4.91,5.56,9.25.66,4.66-.08,8.92-6,8.75"/> </g> <g class="cls-5"> <path class="cls-8" d="M437.2,356.28c-6.3-2.13-13.59-2.62-19.15-.25-3.68,1.56-.9,8.84-1.39,13.58-.17,2,0,4,0,6v16.2c0,2.7-.17,5,3.76,5s4.26-2.29,3.77-5c-1.56-8.43,2.45-10.48,10.14-10.64,6.71-.16,10.72-4.83,11.37-11.62.58-6.38-2.53-11.13-8.5-13.25m-8.51,19.47c-7,.25-4-5.24-4.5-8.51-.66-3.93.57-6.79,4.25-6.14,5.89.58,9.49,2.21,9.16,7.78s-4.41,6.71-8.91,6.87"/> </g> <g class="cls-5"> <path class="cls-10" d="M465.75,365.77a15.83,15.83,0,1,0-.57,31.66c9,.08,15.46-6.38,15.63-15.54s-6.06-15.88-15.06-16.12m-.41,25.12c-5,.08-7.44-3.68-7.53-8.59s1.23-9.41,7-9.82c6-.41,7.45,4,8.27,8.59-.41,5.4-2.21,9.74-7.78,9.82"/> </g> <g class="cls-5"> <path class="cls-11" d="M542.42,366.5c-8.51,2.87-12.6,13-8.92,21.93,3.19,7.61,14.48,11.62,21.93,7.94,2-1,3.27-2.46,2.7-4.75-.9-3.27-3-1.31-4.75-.81-5.73,1.47-10.63.9-13.09-5.81,4.09-1.89,8.1-.9,12-1,8.83-.24,10.39-2.7,6.62-10.55a13,13,0,0,0-16.44-7m3.68,12.85c-2.29-.9-5.81,1.06-5.65-2.45s3.28-5.08,6.71-4.91c2.79.08,5.32,1.63,5.16,4.5-.33,4.66-4.58,1.31-6.22,2.86"/> </g> <g class="cls-5"> <path class="cls-12" d="M597.24,366.59c-8.59,2.94-12.44,13.09-8.51,21.92,3.35,7.61,14.48,11.54,21.85,7.78,2-1.07,3.19-2.54,2.61-4.75-1-3.27-3-1.23-4.74-.73-5.73,1.47-10.64.9-13.34-6.88,4.34,0,7.94.25,11.46-.08,2.86-.24,6.87,1.8,8.42-1.72s.09-7.36-2-10.47c-3.85-5.65-9.33-7.2-15.71-5.07M601.58,379c-2.3-.82-5.81,1.15-6-2-.16-2.86,2.54-4.83,5.73-5s6,1.63,6,4.58c-.16,3.93-4.09,1.15-5.72,2.37"/> </g> <g class="cls-5"> <path class="cls-13" d="M731.67,366.75c-3.6-1.47-6.3.33-7.44,4.5-1.23,4.42-3.36,8.51-5.65,14.32-2.29-6.22-4.17-10.39-5.4-14.73-1.06-3.84-3.68-5.4-7-4.17-4.09,1.55-.65,4.33,0,6.3,3.85,11.94,13.51,23.15,3,36.16,5.73,2.21,8,.25,9.74-4.41,3.93-10.64,8.43-21,12.35-31.67.66-1.72,4.26-4.66.33-6.3"/> </g> <g class="cls-5"> <path class="cls-14" d="M922.56,320.6c-11.62.17-15.95,2.95-15.54,10.88.16,2.54-2.7,7.29,3.84,7,11.46-.49,15.22-2.86,15.22-11.21-1.64-1.55,3.11-6.79-3.52-6.71"/> </g> <g class="cls-5"> <path class="cls-8" d="M580.38,365.93c-2.21-.08-3.43,2.95-6,1.64-6.63-3.27-7.86.24-7.53,6,.16,2.54,0,5.16,0,7.69h0c0,4,.08,7.94,0,11.95,0,2.45,1,3.52,3.52,3.6,2.86.08,4.25-.82,4.09-3.85-.16-2.29,0-4.58,0-6.79-.08-6.22-1.31-13,8.26-13.58,3-.16,1.8-3,1.72-4.75-.32-2.7-2.45-1.8-4-1.88"/> </g></svg>