<?xml version="1.0" encoding="utf-8"?>
<svg viewBox="277.58 22.374 370.179 154.811" xmlns="http://www.w3.org/2000/svg">
  <defs>
    <linearGradient id="linear-gradient" x1="76.86" y1="65.86" x2="44.43" y2="104.51" gradientTransform="matrix(0.45363, 0, 0, -0.45363, 281.505127, 145.518646)" gradientUnits="userSpaceOnUse">
      <stop offset="0" stop-color="#ce5dcb"/>
      <stop offset="0.21" stop-color="#c558cc"/>
      <stop offset="0.55" stop-color="#ac4acf"/>
      <stop offset="0.98" stop-color="#8534d4"/>
      <stop offset="1" stop-color="#8333d4"/>
    </linearGradient>
    <linearGradient id="linear-gradient-2" x1="78.04" y1="109.85" x2="147.73" y2="109.85" gradientTransform="matrix(0.45363, 0, 0, -0.45363, 281.505127, 145.518646)" gradientUnits="userSpaceOnUse">
      <stop offset="0.02" stop-color="#ff5667"/>
      <stop offset="0.66" stop-color="#fc8b82"/>
      <stop offset="1" stop-color="#fba28e"/>
    </linearGradient>
    <linearGradient id="linear-gradient-3" y1="134.9" x2="95.92" y2="134.9" gradientTransform="matrix(0.45363, 0, 0, -0.45363, 281.505127, 145.518646)" gradientUnits="userSpaceOnUse">
      <stop offset="0" stop-color="#00b874"/>
      <stop offset="0.51" stop-color="#29d3a2"/>
      <stop offset="0.68" stop-color="#53dfb6"/>
      <stop offset="1" stop-color="#9ff4d9"/>
    </linearGradient>
    <linearGradient id="linear-gradient-4" x1="65.36" y1="69.54" x2="161.28" y2="69.54" gradientTransform="matrix(0.45363, 0, 0, -0.45363, 281.505127, 145.518646)" gradientUnits="userSpaceOnUse">
      <stop offset="0" stop-color="#fcd77e"/>
      <stop offset="0.52" stop-color="#fea500"/>
      <stop offset="1" stop-color="#ff5b00"/>
    </linearGradient>
    <style>.cls-1{fill:url(#linear-gradient);}.cls-2{fill:url(#linear-gradient-2);}.cls-3{fill:url(#linear-gradient-3);}.cls-4{fill:url(#linear-gradient-4);}.cls-5{fill:#382757;}</style>
  </defs>
  <rect x="277.58" width="370.179" height="154.811" style="fill: rgba(210, 210, 210, 0); fill-opacity: 0;" y="22.374"/>
  <path class="cls-1" d="M 287.648 114.76 C 295.834 122.951 309.11 122.951 317.297 114.76 L 318.081 113.978 C 322.164 109.894 314.001 88.419 318.081 84.327 Z" style=""/>
  <path class="cls-2" d="M 318.873 83.537 L 318.085 84.325 C 314.003 88.403 322.169 109.88 318.085 113.973 L 348.52 83.537 C 340.332 75.353 327.061 75.353 318.873 83.537" style=""/>
  <path id="SVGID" class="cls-3" d="M 287.648 85.113 C 279.458 93.298 279.458 106.574 287.648 114.76 L 318.875 83.532 C 327.067 75.347 327.067 62.072 318.875 53.884 Z" style=""/>
  <path class="cls-4" d="M 317.297 114.76 C 309.109 122.949 309.109 136.224 317.297 144.41 L 348.526 113.183 C 356.714 104.995 356.714 91.719 348.526 83.532 Z" style=""/>
  <path class="cls-5" d="M 470.006 99.311 C 468.265 93.345 464.218 88.319 458.761 85.343 C 453.302 82.383 446.901 81.697 440.937 83.429 C 428.535 87.059 421.418 100.053 425.035 112.461 L 425.035 112.519 C 425.432 113.855 426.075 115.559 426.086 115.588 C 428.077 120.249 431.418 123.812 436.284 126.475 C 446.197 131.875 458.55 129.448 465.684 120.7 L 465.875 120.465 C 466.649 119.482 467.344 118.44 467.947 117.346 C 469.359 114.617 467.283 111.384 464.214 111.528 C 462.884 111.59 461.672 112.311 460.985 113.45 C 460.002 115.202 458.685 116.746 457.106 117.988 C 456.984 118.081 456.873 118.182 456.771 118.294 C 451.913 121.895 445.407 122.348 440.1 119.456 C 437.716 118.15 435.725 116.228 434.335 113.895 L 467.312 104.236 C 469.414 103.617 470.617 101.414 470.006 99.311 Z M 447.557 90.415 C 452.799 90.433 457.677 93.093 460.532 97.49 L 460.767 97.869 L 432.064 106.288 C 431.895 99.279 436.448 93.03 443.173 91.048 C 444.597 90.631 446.074 90.416 447.557 90.415 Z M 465.443 120.354 Z" style=""/>
  <path class="cls-5" d="M 512.317 121.754 L 490.506 121.754 L 514.898 85.915 C 515.856 84.514 514.935 82.602 513.243 82.474 C 513.191 82.47 513.138 82.468 513.083 82.468 L 482.064 82.468 C 479.191 82.468 477.394 85.577 478.831 88.066 C 479.498 89.221 480.73 89.934 482.064 89.934 L 502.845 89.934 L 478.463 125.771 C 477.505 127.169 478.422 129.078 480.109 129.208 C 480.165 129.212 480.221 129.215 480.276 129.215 L 512.302 129.215 C 515.176 129.112 516.862 125.94 515.34 123.505 C 514.683 122.451 513.545 121.795 512.302 121.754 Z" style=""/>
  <path class="cls-5" d="M 560.636 121.754 L 538.832 121.754 L 563.219 85.915 C 564.183 84.523 563.278 82.609 561.589 82.47 C 561.524 82.465 561.462 82.461 561.395 82.463 L 530.391 82.463 C 527.515 82.463 525.719 85.574 527.158 88.063 C 527.822 89.218 529.056 89.929 530.391 89.929 L 551.17 89.929 L 526.788 125.765 C 525.832 127.166 526.745 129.073 528.433 129.201 C 528.49 129.208 528.547 129.21 528.603 129.21 L 560.628 129.21 C 563.503 129.21 565.299 126.098 563.861 123.609 C 563.195 122.454 561.962 121.743 560.628 121.743 Z" style=""/>
  <path class="cls-5" d="M 582.172 62.263 C 580.111 62.265 578.439 63.937 578.437 65.996 L 578.437 125.617 C 578.437 128.492 581.55 130.287 584.038 128.849 C 585.193 128.183 585.904 126.95 585.904 125.617 L 585.904 65.996 C 585.903 63.937 584.232 62.265 582.172 62.263 Z" style=""/>
  <path class="cls-5" d="M 643.416 99.315 C 641.677 93.346 637.625 88.318 632.161 85.349 C 626.702 82.389 620.3 81.702 614.339 83.433 C 601.94 87.069 594.822 100.058 598.435 112.466 L 598.435 112.53 C 598.833 113.858 599.473 115.565 599.486 115.596 C 601.477 120.261 604.815 123.816 609.684 126.484 C 619.595 131.886 631.946 129.459 639.079 120.714 L 639.273 120.465 C 640.043 119.49 640.733 118.46 641.338 117.379 C 642.578 114.566 640.307 111.469 637.251 111.802 C 636.118 111.925 635.09 112.529 634.43 113.458 C 633.449 115.211 632.133 116.754 630.556 117.995 C 630.434 118.09 630.32 118.193 630.216 118.304 C 625.356 121.901 618.851 122.355 613.54 119.465 C 611.155 118.159 609.164 116.239 607.774 113.904 L 640.721 104.236 C 642.82 103.617 644.027 101.418 643.416 99.315 Z M 620.969 90.415 C 626.212 90.433 631.09 93.093 633.944 97.49 L 634.181 97.869 L 605.48 106.288 C 605.27 97.585 612.265 90.415 620.969 90.41 Z" style=""/>
  <path class="cls-5" d="M 412.527 108.461 C 411.306 106.745 409.673 105.363 407.778 104.446 C 404.433 102.744 400.103 101.964 395.947 101.317 L 395.291 101.217 C 392.373 100.762 389.357 100.309 387.419 99.311 C 385.953 98.567 385.433 97.732 385.433 96.104 C 385.433 92.951 388.867 90.573 393.415 90.573 C 398.86 90.573 401.882 92.162 405.282 94.234 C 407.926 95.848 411.323 93.996 411.398 90.901 C 411.434 89.465 410.7 88.119 409.473 87.371 C 407.416 86.047 405.223 84.947 402.933 84.087 C 399.873 83.015 396.649 82.486 393.407 82.526 C 389.214 82.526 385.291 83.802 382.364 86.115 C 379.236 88.481 377.392 92.171 377.376 96.095 C 377.376 100.767 379.59 104.36 383.776 106.479 C 386.852 108.033 390.508 108.6 394.04 109.151 L 394.695 109.249 C 403.768 110.669 406.381 111.972 406.381 114.946 C 406.381 118.663 402.661 121.094 396.906 121.144 L 396.728 121.144 C 392.597 121.233 388.555 119.957 385.224 117.515 C 384.915 117.306 384.652 117.119 384.389 116.957 C 381.655 115.5 378.37 117.55 378.475 120.645 C 378.519 121.884 379.13 123.033 380.128 123.761 C 380.234 123.826 380.392 123.934 380.581 124.055 L 380.69 124.128 C 385.357 127.49 390.978 129.264 396.728 129.187 L 397.004 129.187 C 401.993 129.142 406.294 127.799 409.426 125.294 C 412.595 122.805 414.438 118.991 414.42 114.96 C 414.465 112.654 413.805 110.383 412.527 108.461 Z" style=""/>
</svg>