<svg width="370" height="93" viewBox="0 0 370 93" fill="none" xmlns="http://www.w3.org/2000/svg">
  <path fill-rule="evenodd" clip-rule="evenodd" d="M35.5119 23.14H60.1689C73.4069 23.14 78.3909 29.841 77.6199 39.688C76.3469 55.942 66.5209 64.936 53.4859 64.936H46.9049C45.1169 64.936 43.9139 66.118 43.4309 69.326L40.6369 87.975C40.4509 89.184 39.8159 89.883 38.8599 89.98H23.3699C21.9109 89.98 21.3969 88.865 21.7779 86.454L31.2239 26.671C31.5919 24.278 32.9039 23.14 35.5119 23.14Z" fill="#009EE3"/>
  <path fill-rule="evenodd" clip-rule="evenodd" d="M142.557 22.033C150.876 22.033 158.551 26.545 157.502 37.791C156.229 51.156 149.068 58.552 137.771 58.583H127.9C126.481 58.583 125.794 59.742 125.424 62.116L123.514 74.253C123.228 76.086 122.286 76.99 120.899 76.99H111.715C110.251 76.99 109.742 76.054 110.067 73.96L117.647 25.316C118.022 22.923 118.92 22.033 120.555 22.033H142.539H142.557ZM127.601 48.076H135.079C139.757 47.897 142.863 44.658 143.175 38.816C143.365 35.207 140.928 32.622 137.052 32.642L130.013 32.673L127.601 48.076ZM182.469 73.266C183.31 72.503 184.162 72.108 184.041 73.05L183.742 75.303C183.589 76.481 184.054 77.105 185.148 77.105H193.308C194.682 77.105 195.351 76.55 195.688 74.424L200.717 42.869C200.971 41.284 200.582 40.509 199.38 40.509H190.405C189.597 40.509 189.203 40.961 188.993 42.194L188.661 44.136C188.49 45.147 188.025 45.326 187.592 44.308C186.071 40.706 182.19 39.088 176.773 39.216C164.19 39.477 155.707 49.03 154.797 61.276C154.096 70.745 160.88 78.186 169.829 78.186C176.321 78.186 179.223 76.277 182.495 73.286L182.469 73.266ZM175.633 68.41C170.218 68.41 166.443 64.088 167.227 58.793C168.009 53.498 173.076 49.176 178.491 49.176C183.908 49.176 187.682 53.498 186.899 58.793C186.115 64.088 181.056 68.41 175.633 68.41ZM216.685 40.407H208.41C206.705 40.407 206.012 41.68 206.553 43.245L216.825 73.324L206.75 87.638C205.904 88.834 206.559 89.923 207.748 89.923H217.048C218.154 90.051 219.233 89.52 219.809 88.566L251.403 43.252C252.377 41.857 251.919 40.394 250.321 40.394H241.519C240.011 40.394 239.405 40.992 238.54 42.245L225.365 61.339L219.479 42.201C219.135 41.043 218.276 40.407 216.691 40.407H216.685Z" fill="#113984"/>
  <path fill-rule="evenodd" clip-rule="evenodd" d="M284.269 22.033C292.588 22.033 300.264 26.545 299.213 37.791C297.94 51.156 290.78 58.552 279.483 58.583H269.618C268.199 58.583 267.511 59.742 267.143 62.116L265.233 74.253C264.947 76.086 264.005 76.99 262.617 76.99H253.433C251.97 76.99 251.461 76.054 251.785 73.96L259.378 25.303C259.754 22.91 260.651 22.02 262.286 22.02H284.269V22.033ZM269.313 48.076H276.791C281.469 47.897 284.575 44.658 284.887 38.816C285.077 35.207 282.64 32.622 278.764 32.642L271.724 32.673L269.313 48.076ZM324.181 73.266C325.021 72.503 325.875 72.108 325.753 73.05L325.454 75.303C325.301 76.481 325.766 77.105 326.86 77.105H335.02C336.395 77.105 337.063 76.55 337.4 74.424L342.428 42.869C342.682 41.284 342.294 40.509 341.092 40.509H332.131C331.323 40.509 330.927 40.961 330.717 42.194L330.387 44.136C330.214 45.147 329.749 45.326 329.317 44.308C327.796 40.706 323.914 39.088 318.498 39.216C305.915 39.477 297.431 49.03 296.521 61.276C295.821 70.745 302.606 78.186 311.554 78.186C318.045 78.186 320.947 76.277 324.219 73.286L324.181 73.266ZM317.352 68.41C311.935 68.41 308.162 64.088 308.944 58.793C309.728 53.498 314.793 49.176 320.21 49.176C325.626 49.176 329.4 53.498 328.618 58.793C327.834 64.088 322.769 68.41 317.352 68.41ZM354.986 77.156H345.566C344.868 77.186 344.313 76.573 344.413 75.883L352.688 23.464C352.85 22.727 353.499 22.2 354.253 22.191H363.673C364.371 22.159 364.925 22.772 364.824 23.464L356.551 75.883C356.393 76.624 355.743 77.157 354.986 77.167V77.156Z" fill="#009EE3"/>
  <path fill-rule="evenodd" clip-rule="evenodd" d="M20.0912 2.56299H44.7732C51.7232 2.56299 59.9722 2.78599 65.4832 7.65499C69.1682 10.907 71.1032 16.081 70.6582 21.657C69.1432 40.502 57.8712 51.06 42.7492 51.06H30.5802C28.5062 51.06 27.1372 52.435 26.5512 56.152L23.1532 77.791C22.9302 79.192 22.3252 80.019 21.2442 80.12H6.0142C4.3272 80.12 3.7292 78.848 4.1672 76.035L15.1152 6.67398C15.5532 3.88698 17.0872 2.56299 20.0912 2.56299Z" fill="#113984"/>
  <path fill-rule="evenodd" clip-rule="evenodd" d="M26.9082 53.956L31.2172 26.671C31.5922 24.278 32.9042 23.133 35.5122 23.133H60.1692C64.2492 23.133 67.5522 23.769 70.1362 24.947C67.6602 41.724 56.8092 51.042 42.6032 51.042H30.4532C28.8242 51.047 27.6272 51.862 26.9082 53.956Z" fill="#172C70"/>
</svg>