<svg width="200" viewBox="0 0 579 579" fill="none" xmlns="http://www.w3.org/2000/svg">
<path d="M500.268 290C500.198 259.973 493.73 230.306 481.292 202.976C468.855 175.647 450.734 151.282 428.139 131.507C405.544 111.732 378.993 97.0002 350.256 88.2942C321.519 79.5882 291.257 77.1078 261.486 81.0184C231.715 84.929 203.12 95.1407 177.606 110.973C152.092 126.805 130.247 147.894 113.525 172.833C96.8034 197.773 85.5901 225.991 80.6326 255.605C75.675 285.22 77.0872 315.551 84.7749 344.577H493.225C497.942 326.769 500.31 308.421 500.268 290Z" fill="#0D72B9"/>
<path d="M109.423 400.915H468.578C474.18 391.918 479.077 382.5 483.225 372.746H94.5635C98.7796 382.507 103.748 391.925 109.423 400.915Z" fill="#EC1E24"/>
<path d="M159.986 457.253H418.014C428.889 448.866 438.913 439.431 447.944 429.084H130.056C139.087 439.431 149.111 448.866 159.986 457.253Z" fill="#EC1E24"/>
<path d="M289 501.267C316.541 501.307 343.821 495.923 369.282 485.422H208.718C234.179 495.923 261.459 501.307 289 501.267Z" fill="#EC1E24"/>
<path d="M289 540C239.555 540 191.22 525.338 150.108 497.867C108.995 470.397 76.9521 431.352 58.0302 385.671C39.1083 339.989 34.1575 289.723 43.8038 241.227C53.4501 192.732 77.2603 148.187 112.223 113.223C147.187 78.2603 191.732 54.4501 240.227 44.8038C288.723 35.1575 338.989 40.1083 384.671 59.0302C430.352 77.9521 469.397 109.995 496.867 151.108C524.338 192.22 539 240.555 539 290C538.944 356.287 512.587 419.843 465.715 466.715C418.843 513.587 355.287 539.944 289 540V540ZM289 47.0424C240.948 47.0424 193.974 61.2916 154.02 87.9881C114.066 114.685 82.9253 152.629 64.5364 197.024C46.1475 241.419 41.3362 290.27 50.7107 337.399C60.0853 384.528 83.2248 427.819 117.203 461.797C151.181 495.775 194.472 518.915 241.601 528.289C288.731 537.664 337.581 532.853 381.976 514.464C426.371 496.075 464.315 464.934 491.012 424.98C517.709 385.026 531.958 338.053 531.958 290C531.883 225.587 506.262 163.833 460.715 118.285C415.167 72.7381 353.414 47.1169 289 47.0424V47.0424Z" fill="#D02027"/>
<path d="M300.338 154.789L302.521 106.69H296.324L294.141 154.789H300.338Z" fill="white"/>
<path d="M236.183 147.535C236.565 149.281 237.598 150.817 239.07 151.831C239.739 152.325 240.507 152.669 241.322 152.84C242.136 153.01 242.978 153.002 243.789 152.817C249.921 151.387 255.84 149.162 261.394 146.197L262.944 153.239C257.408 156.192 251.514 158.417 245.408 159.859C243.781 160.25 242.087 160.282 240.446 159.954C238.804 159.626 237.254 158.944 235.901 157.957C232.967 155.901 230.928 152.803 230.197 149.295L222.099 115.422L252.31 108.38L253.859 115.07L229.704 120.704L232.873 134.155L244.986 131.549L246.535 138.591L234.493 141.408L236.183 147.535Z" fill="white"/>
<path fill-rule="evenodd" clip-rule="evenodd" d="M190.761 129.436C185.262 132.488 180.174 136.227 175.62 140.563L197.028 178.661C203.126 177.069 208.996 174.702 214.493 171.619C216.289 170.592 217.846 169.194 219.061 167.518C220.275 165.843 221.118 163.928 221.535 161.901C222.532 157.541 221.854 152.966 219.634 149.084L212.591 137.042C210.525 133.053 206.99 130.023 202.732 128.591C200.798 127.841 198.721 127.528 196.652 127.674C194.582 127.821 192.571 128.422 190.761 129.436ZM210.69 165.563C207.041 167.58 203.224 169.276 199.282 170.633L183.93 142.535C187.168 139.889 190.632 137.533 194.282 135.492C195.347 134.9 196.527 134.544 197.742 134.446C198.956 134.349 200.178 134.514 201.324 134.929C203.873 135.797 205.991 137.613 207.239 139.999L213.93 152.042C215.232 154.376 215.633 157.107 215.056 159.718C214.811 160.956 214.292 162.124 213.536 163.136C212.781 164.147 211.808 164.976 210.69 165.563Z" fill="white"/>
<path fill-rule="evenodd" clip-rule="evenodd" d="M165.056 193.451L172.099 206.198L167.732 210.775L143.155 166.761L147.732 161.972L193.084 184.155L188.648 188.733L175.62 182.395L165.056 193.451ZM169.141 179.367L152.873 171.409L161.606 187.324L169.141 179.367Z" fill="white"/>
<path d="M114.704 236.126L149.915 243.168L152.803 237.182L125.549 213.52L160.761 220.563L163.577 214.718L114.986 204.858L112.099 211.056L140.268 234.577L104.141 227.534L101.183 233.661L139.493 265.14L142.239 259.365L114.704 236.126Z" fill="white"/>
<path fill-rule="evenodd" clip-rule="evenodd" d="M288.296 328.522C278.404 327.227 268.846 324.073 260.127 319.226L251.958 342.043C253.606 342.943 255.28 343.788 256.978 344.577H234.9C235.538 344.017 236.154 343.43 236.746 342.817C242.227 335.795 245.068 327.072 244.775 318.169L245.197 241.902H221.676V318.029C221.676 324.507 217.944 327.536 210.408 327.536C202.944 327.489 199.235 324.179 199.282 317.606V241.268H175.69L175.338 317.747C175.055 326.673 178.006 335.401 183.648 342.324C184.438 343.117 185.265 343.869 186.126 344.577H84.6338C87.1601 354.189 90.3846 363.604 94.2817 372.746H483.437C487.334 363.604 490.558 354.189 493.084 344.577H403.073L379.915 242.112H349.211L325.623 344.577H310.468C310.908 344.146 311.334 343.7 311.746 343.24C317.434 335.824 320.192 326.574 319.493 317.254C318.859 306.55 312.169 296.902 297.732 288.099C283.296 279.296 276.324 273.029 276.254 269.437C276.183 265.846 279.07 263.803 284.915 263.381C292.981 263.691 300.794 266.28 307.451 270.846L320.69 250.493C311.082 243.873 299.75 240.202 288.085 239.93C278.914 239.734 269.916 242.446 262.38 247.677C258.755 250.684 255.927 254.538 254.146 258.899C252.365 263.259 251.686 267.991 252.169 272.677C252.239 284.226 259.634 294.367 274.352 303.24C289.07 312.113 296.465 318.522 296.465 322.536C296.465 326.55 293.718 328.522 288.296 328.522ZM350.097 344.577H377.031L374.986 333.802L352.028 334.295L350.097 344.577ZM370.549 311.69L363.507 273.309L356.465 311.549L370.549 311.69Z" fill="white"/>
<path d="M325.761 109.085L338.225 149.578L345.972 113.381L352.028 114.649L341.817 161.761L334.775 160.212L322.31 119.719L314.634 155.846L308.577 154.578L318.648 107.606L325.761 109.085Z" fill="white"/>
<path d="M382.732 163.381L401.817 139.014L396.887 135.352L377.873 159.719C374.938 163.31 373.545 167.919 374 172.535C374.068 174.615 374.596 176.653 375.546 178.504C376.496 180.354 377.844 181.972 379.493 183.24L381.958 185.141C383.592 186.442 385.495 187.364 387.529 187.839C389.563 188.314 391.677 188.33 393.718 187.888C398.173 187.051 402.133 184.528 404.775 180.845L423.789 156.55L418.859 152.676L399.845 176.761C398.238 178.915 395.871 180.375 393.225 180.845C391.999 181.093 390.734 181.07 389.517 180.779C388.301 180.487 387.163 179.933 386.183 179.155L383.718 177.254C382.742 176.483 381.942 175.512 381.371 174.407C380.8 173.302 380.472 172.088 380.408 170.845C380.185 168.15 381.018 165.473 382.732 163.381Z" fill="white"/>
<path d="M421.958 196.267C420.96 194.933 420.267 193.398 419.926 191.767C419.585 190.137 419.606 188.452 419.986 186.83C420.699 183.334 422.712 180.238 425.62 178.168C428.462 175.964 432.04 174.931 435.62 175.281C437.282 175.392 438.9 175.865 440.36 176.668C441.82 177.471 443.087 178.584 444.07 179.929C447.766 185.002 450.817 190.513 453.155 196.337L447.662 200.422C445.324 194.598 442.273 189.086 438.577 184.014C438.07 183.357 437.433 182.813 436.706 182.413C435.979 182.013 435.178 181.767 434.352 181.69C432.567 181.505 430.778 182.009 429.352 183.098C427.932 184.137 426.952 185.669 426.606 187.394C426.396 188.199 426.369 189.04 426.528 189.857C426.686 190.673 427.026 191.444 427.521 192.112L431.254 197.112C432.285 198.443 433.01 199.985 433.375 201.629C433.741 203.273 433.737 204.977 433.366 206.619C432.636 210.127 430.596 213.224 427.662 215.281C424.809 217.46 421.232 218.468 417.662 218.098C415.999 217.987 414.381 217.514 412.921 216.711C411.461 215.908 410.195 214.795 409.211 213.45C405.501 208.387 402.449 202.873 400.127 197.042L405.69 192.957C408.012 198.789 411.065 204.302 414.775 209.366C415.252 210.053 415.882 210.62 416.615 211.023C417.348 211.426 418.164 211.654 419 211.69C420.785 211.874 422.574 211.371 424 210.281C425.461 209.238 426.469 207.676 426.817 205.915C426.997 205.104 427.003 204.263 426.833 203.449C426.663 202.636 426.321 201.868 425.831 201.197L421.958 196.267Z" fill="white"/>
<path fill-rule="evenodd" clip-rule="evenodd" d="M422.169 234.999L436.606 233.591L442.873 247.957L431.887 257.464L434.422 263.239L472.591 230.281L469.986 224.225L419.704 229.154L422.169 234.999ZM461.535 231.126L448.155 242.957L443.507 232.887L461.535 231.126Z" fill="white"/>
<path d="M130.056 429.084H447.944C455.764 420.304 462.831 410.881 469.07 400.915H109.423C115.505 410.863 122.407 420.285 130.056 429.084Z" fill="white"/>
<path d="M369.282 485.422H208.718C191.293 478.242 174.905 468.769 159.986 457.253H418.014C403.095 468.769 386.706 478.242 369.282 485.422Z" fill="white"/>
</svg>
