<svg width="200" viewBox="0 0 1274 764" fill="none" xmlns="http://www.w3.org/2000/svg">
<path d="M0 71C0 31.7878 31.7878 0 71 0H1203C1242.21 0 1274 31.7878 1274 71V693C1274 732.212 1242.21 764 1203 764H71C31.7878 764 0 732.212 0 693V71Z" fill="#7AB55C"/>
<path fill-rule="evenodd" clip-rule="evenodd" d="M1203 20H71C42.8335 20 20 42.8335 20 71V693C20 721.167 42.8335 744 71 744H1203C1231.17 744 1254 721.167 1254 693V71C1254 42.8335 1231.17 20 1203 20ZM71 0C31.7878 0 0 31.7878 0 71V693C0 732.212 31.7878 764 71 764H1203C1242.21 764 1274 732.212 1274 693V71C1274 31.7878 1242.21 0 1203 0H71Z" fill="#EEEEEE"/>
<path d="M355.561 405.751C360.482 408.481 369.229 411.757 377.977 411.757C385.632 411.757 390.006 407.389 390.006 402.475C390.006 397.561 387.272 394.285 378.524 389.371C368.136 383.365 360.482 375.175 360.482 364.255C360.482 345.145 376.884 331.496 400.941 331.496C411.329 331.496 419.53 333.68 423.904 335.864L417.343 354.973C413.516 353.335 407.501 351.151 400.394 351.151C392.739 351.151 387.819 354.427 387.819 360.433C387.819 364.801 391.646 368.077 398.207 371.353C409.142 377.359 417.89 385.549 417.89 397.015C417.89 418.855 400.394 430.866 375.79 430.32C364.309 430.32 353.921 427.045 349 423.769L355.561 405.751ZM423.357 430.32L450.147 292.73H477.484L467.096 346.237H467.643C474.751 337.501 484.592 331.496 496.62 331.496C510.836 331.496 519.037 340.777 519.037 356.065C519.037 360.979 518.49 368.077 516.85 374.083L505.915 430.32H478.578L488.966 376.267C489.513 372.445 490.059 368.077 490.059 364.255C490.059 358.249 487.873 354.427 481.312 354.427C472.564 354.427 463.269 365.347 459.442 383.365L450.147 430.866H423.357V430.32ZM617.997 369.715C617.997 403.021 596.127 431.958 563.87 431.958C539.266 431.958 526.144 415.033 526.144 394.285C526.144 361.525 548.014 332.042 580.819 332.042C606.516 332.042 617.997 350.059 617.997 369.715ZM554.028 393.193C554.028 403.021 557.856 410.665 567.15 410.665C581.912 410.665 589.567 385.003 589.567 368.623C589.567 360.433 586.286 352.243 576.445 352.243C562.229 352.789 554.028 377.905 554.028 393.193ZM611.436 468.54L630.572 369.715C632.759 358.795 634.946 344.053 636.04 333.68H660.096L658.456 348.967H659.003C666.11 338.593 677.045 332.588 687.98 332.588C708.21 332.588 716.411 348.421 716.411 366.985C716.411 399.745 695.088 433.05 663.377 433.05C656.816 433.05 650.255 430.32 647.521 430.32H646.974L639.32 468.54H611.436ZM650.802 407.389C653.535 409.573 657.363 411.211 662.283 411.211C677.592 411.211 687.98 386.095 687.98 368.623C687.98 361.525 685.246 353.881 677.045 353.881C667.751 353.881 658.456 364.801 655.176 381.727L650.802 407.389ZM717.504 430.32L736.093 333.68H763.977L745.388 430.32H717.504ZM753.042 323.306C745.388 323.306 739.921 317.3 739.921 309.11C739.921 300.374 747.028 293.276 755.776 293.276C763.977 293.276 769.445 299.282 769.445 307.472C769.445 317.3 761.79 323.306 753.042 323.306ZM768.898 430.32L783.66 353.881H771.085L774.912 333.68H787.487L788.034 329.312C790.221 317.846 794.595 306.38 803.889 298.736C810.997 292.73 820.839 290 830.68 290C837.241 290 842.161 291.092 845.442 292.184L839.974 313.478C837.788 312.932 835.054 311.84 831.227 311.84C821.932 311.84 816.465 320.03 814.824 329.312L813.731 333.68H832.867L829.04 353.881H809.904L795.142 430.32H768.898ZM867.312 333.68L871.686 376.813C872.779 386.641 873.873 394.831 873.873 399.745H874.419C876.606 394.831 878.793 387.187 882.62 376.813L899.569 333.68H928L894.649 405.205C882.62 429.774 871.139 447.246 858.564 459.258C848.722 468.54 837.241 472.908 831.773 474L824.119 451.068C828.493 449.43 834.507 447.246 839.428 443.424C845.989 439.056 850.909 433.05 854.19 427.045C854.737 425.407 855.283 424.315 854.737 416.671L838.334 333.68H867.312Z" fill="white"/>
</svg>
