<!-- start icon-shopify-secure-black  -->
<svg xmlns="http://www.w3.org/2000/svg" width="102" height="44" fill="none"><rect x=".5" y=".5" width="101" height="43" rx="3.5" fill="#1E1E1E" stroke="#3B3A37"/><path d="M49.977 16.22c-.556-.303-.843-.558-.843-.908 0-.446.398-.732 1.019-.732.723 0 1.368.302 1.368.302l.51-1.56s-.469-.365-1.847-.365c-1.917 0-3.246 1.098-3.246 2.641 0 .875.62 1.544 1.448 2.02.669.383.908.653.908 1.051 0 .414-.335.748-.955.748-.925 0-1.798-.478-1.798-.478L46 20.5s.807.54 2.164.54c1.973 0 3.39-.97 3.39-2.72 0-.938-.717-1.607-1.577-2.1zM57.839 12.941c-.97 0-1.735.462-2.323 1.161l-.032-.016.843-4.407h-2.196l-2.132 11.218h2.196l.732-3.835c.286-1.448 1.034-2.339 1.734-2.339.493 0 .685.335.685.812 0 .303-.032.669-.096.97l-.827 4.393h2.196l.86-4.535c.095-.478.159-1.05.159-1.433-.001-1.241-.654-1.989-1.8-1.989zM64.601 12.941c-2.641 0-4.391 2.387-4.391 5.044 0 1.703 1.05 3.07 3.023 3.07 2.594 0 4.344-2.322 4.344-5.043 0-1.575-.923-3.071-2.976-3.071zM63.52 19.37c-.748 0-1.066-.637-1.066-1.432 0-1.257.653-3.31 1.846-3.31.78 0 1.034.668 1.034 1.32 0 1.353-.652 3.422-1.814 3.422zM73.194 12.941c-1.482 0-2.323 1.305-2.323 1.305h-.032l.128-1.178h-1.942a46.9 46.9 0 0 1-.445 2.912l-1.528 8.036h2.196l.605-3.246h.047s.451.286 1.29.286c2.577 0 4.264-2.641 4.264-5.315 0-1.48-.653-2.8-2.26-2.8zm-2.1 6.46c-.57 0-.908-.318-.908-.318l.366-2.052c.255-1.369.971-2.276 1.735-2.276.668 0 .875.62.875 1.21 0 1.416-.843 3.436-2.069 3.436zM78.589 9.79c-.7 0-1.257.557-1.257 1.273 0 .653.413 1.098 1.034 1.098h.032c.684 0 1.273-.461 1.289-1.273 0-.636-.43-1.098-1.098-1.098zM75.518 20.897h2.195l1.497-7.78h-2.212l-1.48 7.78zM84.795 13.1h-1.528l.08-.366c.127-.748.572-1.416 1.304-1.416.39 0 .7.111.7.111l.43-1.718s-.382-.191-1.194-.191c-.78 0-1.559.223-2.148.732-.748.636-1.098 1.559-1.273 2.482l-.063.366h-1.019l-.318 1.655h1.019l-1.162 6.143h2.196l1.162-6.143h1.511l.303-1.655zM90.078 13.116s-1.373 3.459-1.99 5.347h-.032c-.041-.608-.54-5.347-.54-5.347h-2.308l1.321 7.145c.032.159.016.254-.048.366-.254.493-.684.97-1.193 1.32-.414.303-.875.494-1.241.621l.604 1.862c.446-.095 1.369-.462 2.148-1.194 1.003-.938 1.926-2.386 2.88-4.36l2.69-5.76h-2.291z" fill="#fff"/><path d="M29.299 13.738a.242.242 0 0 0-.219-.204c-.09-.007-1.865-.034-1.865-.034s-1.484-1.442-1.63-1.588c-.147-.147-.434-.103-.545-.07l-.745.232a5.215 5.215 0 0 0-.357-.877c-.529-1.009-1.302-1.542-2.237-1.543h-.004c-.065 0-.13.006-.194.011a2.94 2.94 0 0 0-.085-.097c-.407-.436-.93-.648-1.555-.63-1.208.035-2.41.907-3.385 2.457-.687 1.09-1.209 2.459-1.357 3.519l-2.377.736c-.7.22-.722.242-.814.902-.067.498-1.899 14.66-1.899 14.66l15.347 2.654 6.652-1.654s-2.714-18.349-2.731-18.474zm-5.773-1.426l-1.19.368c-.01-.611-.082-1.462-.367-2.197.916.173 1.367 1.21 1.557 1.829zm-1.994.617c-.804.25-1.681.52-2.562.793.248-.948.717-1.892 1.294-2.51.214-.231.515-.488.87-.634.334.697.407 1.684.398 2.351zm-1.645-3.187c.284-.006.522.056.726.19-.326.17-.642.413-.938.73-.767.824-1.354 2.101-1.589 3.333l-2.104.652c.415-1.94 2.041-4.85 3.905-4.905z" fill="#95BF47"/><path d="M29.082 13.535a195.77 195.77 0 0 0-1.866-.035s-1.484-1.44-1.63-1.588a.364.364 0 0 0-.206-.094v22.047l6.651-1.653s-2.714-18.348-2.73-18.474a.242.242 0 0 0-.22-.203z" fill="#5E8E3E"/><path d="M21.692 16.955l-.772 2.89s-.862-.392-1.884-.328c-1.498.095-1.513 1.04-1.498 1.277.081 1.293 3.482 1.575 3.673 4.602.15 2.382-1.264 4.012-3.3 4.14-2.445.154-3.791-1.288-3.791-1.288l.518-2.203s1.355 1.022 2.44.954c.707-.045.96-.621.935-1.029-.107-1.686-2.876-1.586-3.05-4.357-.148-2.33 1.383-4.693 4.762-4.906 1.301-.084 1.967.248 1.967.248z" fill="#fff"/><path fill="#3B3A37" d="M39 8h1v28h-1z"/><path d="M56.986 31.983c0-1.25-.792-1.692-2.106-2.007-.972-.234-1.206-.468-1.206-.963 0-.477.342-.783.981-.783.594 0 .954.333 1.062.882l1.134-.153c-.144-.954-.873-1.647-2.187-1.647-1.305 0-2.142.738-2.142 1.791 0 1.125.657 1.63 2.016 1.944.936.225 1.251.46 1.251 1.044 0 .54-.432.91-1.071.91-.837 0-1.134-.514-1.224-1.108l-1.17.153c.144.981.873 1.872 2.385 1.872 1.395 0 2.277-.819 2.277-1.935zM58.53 33.828h3.987v-.963h-2.772v-1.89h2.125v-.909h-2.124v-1.71h2.627v-.963h-3.842v6.435zM68.924 31.821l-1.143-.17c-.108.656-.558 1.277-1.368 1.277-.945 0-1.485-.702-1.485-1.98v-.693c0-1.269.576-1.98 1.476-1.98.738 0 1.143.495 1.242 1.206l1.224-.162c-.153-1.143-.98-2.007-2.457-2.007-1.575 0-2.754 1.143-2.754 2.961v.675c0 1.836 1.008 2.97 2.754 2.97 1.62 0 2.358-1.17 2.511-2.097zM73.937 27.393v4.023c0 1.125-.405 1.521-1.215 1.521-.846 0-1.179-.44-1.179-1.467v-4.077H70.31v4.15c0 1.565.882 2.375 2.394 2.375 1.593 0 2.457-.846 2.457-2.43v-4.095h-1.224zM76.931 33.828h1.215v-2.637h.82l1.457 2.637h1.314l-1.593-2.826c.73-.207 1.27-.684 1.27-1.638v-.135c0-1.269-.883-1.836-2.296-1.836h-2.187v6.435zm1.215-3.483v-2.007h.963c.693 0 1.098.243 1.098.918v.126c0 .657-.378.963-1.107.963h-.954zM83.085 33.828h3.987v-.963H84.3v-1.89h2.124v-.909H84.3v-1.71h2.628v-.963h-3.843v6.435z" fill="#A5A5A5"/></svg>