<svg xmlns="http://www.w3.org/2000/svg" xmlns:xlink="http://www.w3.org/1999/xlink" version="1.1" id="Layer_1" x="0px" y="0px" width="16px" height="16px" viewBox="0 0 16 16" enable-background="new 0 0 16 16" xml:space="preserve"><g><g><path d="M15,4h-2V1c0-0.553-0.447-1-1-1H4C3.447,0,3,0.447,3,1v3H1C0.447,4,0,4.447,0,5v8c0,0.553,0.447,1,1,1h2v1 c0,0.553,0.447,1,1,1h8c0.553,0,1-0.447,1-1v-1h2c0.553,0,1-0.447,1-1V5C16,4.447,15.553,4,15,4z M5,2h6v2H5V2z M11,14H5v-2h6V14z M14,12h-1v-2H3v2H2V6h12V12z M13,7h-2v2h2V7z"/></g></g></svg>